<?xml version="1.0" encoding="UTF-8" standalone="no"?>
<!-- Created with Inkscape (http://www.inkscape.org/) -->

<svg
   xmlns:dc="http://purl.org/dc/elements/1.1/"
   xmlns:cc="http://creativecommons.org/ns#"
   xmlns:rdf="http://www.w3.org/1999/02/22-rdf-syntax-ns#"
   xmlns:svg="http://www.w3.org/2000/svg"
   xmlns="http://www.w3.org/2000/svg"
   xmlns:sodipodi="http://sodipodi.sourceforge.net/DTD/sodipodi-0.dtd"
   xmlns:inkscape="http://www.inkscape.org/namespaces/inkscape"
   width="800"
   height="1052.3622"
   id="svg2"
   version="1.1"
   inkscape:version="0.48.4 r9939"
   sodipodi:docname="nuclearsub.svg">
  <defs
     id="defs4" />
  <sodipodi:namedview
     id="base"
     pagecolor="#ffffff"
     bordercolor="#666666"
     borderopacity="1.0"
     inkscape:pageopacity="0.0"
     inkscape:pageshadow="2"
     inkscape:zoom="0.98994949"
     inkscape:cx="514.15137"
     inkscape:cy="307.3428"
     inkscape:document-units="px"
     inkscape:current-layer="layer1"
     showgrid="false"
     inkscape:window-width="2560"
     inkscape:window-height="1388"
     inkscape:window-x="-8"
     inkscape:window-y="-8"
     inkscape:window-maximized="1" />
  <metadata
     id="metadata7">
    <rdf:RDF>
      <cc:Work
         rdf:about="">
        <dc:format>image/svg+xml</dc:format>
        <dc:type
           rdf:resource="http://purl.org/dc/dcmitype/StillImage" />
        <dc:title></dc:title>
      </cc:Work>
    </rdf:RDF>
  </metadata>
  <g
     inkscape:label="Layer 1"
     inkscape:groupmode="layer"
     id="layer1"
     style="display:inline">
    <rect
       style="fill:none;stroke:#800000"
       id="rect3071"
       width="2.0834396"
       height="0.9785853"
       x="687.06537"
       y="622.99536" />
    <rect
       style="fill:none;stroke:#800000"
       id="rect3071-4"
       width="2.0834396"
       height="0.9785853"
       x="695.99512"
       y="622.96844" />
  </g>
  <g
     inkscape:groupmode="layer"
     id="layer2"
     inkscape:label="Hull">
    <path
       style="color:#000000;fill:none;stroke:#800000;stroke-width:1px;stroke-linecap:butt;stroke-linejoin:miter;stroke-miterlimit:4;stroke-opacity:1;stroke-dasharray:none;stroke-dashoffset:0;marker:none;visibility:visible;display:inline;overflow:visible;enable-background:accumulate"
       d="m 26.074563,660.86494 -0.947018,24.05425 18.561553,-0.12627 6.534116,-19.79681 c 0,0 97.589286,14.41964 109.330356,15.9375 11.74107,1.51786 42.23214,4.19643 62.76786,5.26786 20.53571,1.07143 44.73214,1.78571 90.71429,1.78571 45.98214,0 468.31728,1.00419 468.31728,1.00419 0,0 4.89292,0.34724 4.89292,-4.89293 0,-5.24016 0,-65.26304 0,-65.26304 0,0 -0.99857,-10.33956 -17.90863,-10.33956 -16.91006,0 -220.04543,0 -220.04543,0 l 0,-54.1073 c 0,0 -0.0316,-3.4724 -3.4724,-3.4724 -3.44083,0 -18.90879,0 -18.90879,0 0,0 -2.23084,-0.11492 -5.00632,-2.89039 -2.77547,-2.77547 -2.82236,-1.97096 -8.66231,-1.97096 -5.83994,0 -48.92926,3.47239 -48.92926,3.47239 0,0 -4.02157,0.10466 -4.02157,6.96556 0,6.86091 -3.20733,51.97053 -3.20733,51.97053 l -306.64831,0.53664 c 0,0 -10.74075,0.40518 -21.89092,4.07656 -10.79999,3.55608 -10.61415,3.81953 -15.22322,6.91964 -4.39708,2.95752 -5.58036,5 -5.58036,5 0,0 -6.74107,-0.40179 -25.133927,3.08036 -18.392857,3.48214 -31.071429,5.49107 -31.071429,5.49107 l -3.660714,-18.75 -19.910714,0 0,23.88393"
       id="path3007"
       inkscape:connector-curvature="0"
       sodipodi:nodetypes="ccccssscscsccscsscsccsscscccc" />
    <path
       style="color:#000000;fill:none;stroke:#800000;stroke-width:1px;stroke-linecap:butt;stroke-linejoin:miter;stroke-miterlimit:4;stroke-opacity:1;stroke-dasharray:none;stroke-dashoffset:0;marker:none;visibility:visible;display:inline;overflow:visible;enable-background:accumulate"
       d="m 18.035714,643.43361 c 0,0 0.357143,3.66071 -0.357143,6.11607 -0.714285,2.45536 -0.580357,7.54464 -0.580357,7.54464 0,0 0.446429,1.16072 2.321429,1.83036 1.875,0.66964 24.821429,5.13393 24.821429,5.13393"
       id="path3011"
       inkscape:connector-curvature="0" />
    <path
       style="color:#000000;fill:none;stroke:#800000;stroke-width:1px;stroke-linecap:butt;stroke-linejoin:miter;stroke-miterlimit:4;stroke-opacity:1;stroke-dasharray:none;stroke-dashoffset:0;marker:none;visibility:visible;display:inline;overflow:visible;enable-background:accumulate"
       d="m 50.539195,633.59082 -19.540139,4.79822"
       id="path3013"
       inkscape:connector-curvature="0" />
  </g>
  <g
     inkscape:groupmode="layer"
     id="layer3"
     inkscape:label="Details">
    <path
       style="color:#000000;fill:none;stroke:#800000;stroke-width:1px;stroke-linecap:butt;stroke-linejoin:miter;stroke-miterlimit:4;stroke-opacity:1;stroke-dasharray:none;stroke-dashoffset:0;marker:none;visibility:visible;display:inline;overflow:visible;enable-background:accumulate"
       d="m 548.2603,608.40014 -92.23956,0"
       id="path3016"
       inkscape:connector-curvature="0" />
    <path
       style="color:#000000;fill:none;stroke:#800000;stroke-width:1px;stroke-linecap:butt;stroke-linejoin:miter;stroke-miterlimit:4;stroke-opacity:1;stroke-dasharray:none;stroke-dashoffset:0;marker:none;visibility:visible;display:inline;overflow:visible;enable-background:accumulate"
       d="m 106.71875,625.06307 88.99554,0 c 0,0 32.14285,-0.29017 71.875,-2.34375 39.73214,-2.05357 70.35714,-1.60714 70.35714,-1.60714 l 111.07143,0 c 0,0 126.51655,1.8089 198.23738,6.73339 71.72084,4.9245 77.52921,8.08123 77.52921,8.08123"
       id="path3018"
       inkscape:connector-curvature="0" />
    <path
       style="color:#000000;fill:none;stroke:#800000;stroke-width:1px;stroke-linecap:butt;stroke-linejoin:miter;stroke-miterlimit:4;stroke-opacity:1;stroke-dasharray:none;stroke-dashoffset:0;marker:none;visibility:visible;display:inline;overflow:visible;enable-background:accumulate"
       d="m 53.159278,653.98327 0,4.9245 73.867402,-0.88389 c 0,0 4.67196,0.31567 4.23002,-2.58851 -0.44195,-2.90419 -4.48256,-2.20971 -4.48256,-2.20971 z"
       id="path3020"
       inkscape:connector-curvature="0" />
    <path
       style="color:#000000;fill:none;stroke:#800000;stroke-width:1px;stroke-linecap:butt;stroke-linejoin:miter;stroke-miterlimit:4;stroke-opacity:1;stroke-dasharray:none;stroke-dashoffset:0;marker:none;visibility:visible;display:inline;overflow:visible;enable-background:accumulate"
       d="m 52.21226,654.55148 0,4.79823"
       id="path3022"
       inkscape:connector-curvature="0" />
    <path
       style="color:#000000;fill:none;stroke:#800000;stroke-width:1px;stroke-linecap:butt;stroke-linejoin:miter;stroke-miterlimit:4;stroke-opacity:1;stroke-dasharray:none;stroke-dashoffset:0;marker:none;visibility:visible;display:inline;overflow:visible;enable-background:accumulate"
       d="m 10.101525,642.93473 42.773647,0 c 0,0 1.830902,0.0947 1.830902,-1.8309 0,-1.92561 -3.567101,-2.08344 -4.766657,-2.08344 -1.199557,0 -31.693537,0 -31.693537,0 0,0 -0.536643,-0.34724 -2.146574,0.91545 -1.60993,1.26269 -5.997781,1.10485 -5.997781,1.10485 z"
       id="path3024"
       inkscape:connector-curvature="0" />
    <path
       style="color:#000000;fill:none;stroke:#800000;stroke-width:1px;stroke-linecap:butt;stroke-linejoin:miter;stroke-miterlimit:4;stroke-opacity:1;stroke-dasharray:none;stroke-dashoffset:0;marker:none;visibility:visible;display:inline;overflow:visible;enable-background:accumulate"
       d="m 42.205436,643.02943 c 0,0 0.126269,3.7565 -5.240166,3.7565 -5.366436,0 -17.993342,1.23113 -17.993342,1.23113 l 0,-4.95606"
       id="path3026"
       inkscape:connector-curvature="0" />
    <path
       style="color:#000000;fill:none;stroke:#800000;stroke-width:1px;stroke-linecap:butt;stroke-linejoin:miter;stroke-miterlimit:4;stroke-opacity:1;stroke-dasharray:none;stroke-dashoffset:0;marker:none;visibility:visible;display:inline;overflow:visible;enable-background:accumulate"
       d="m 36.584822,656.9604 c 0,0 -0.535715,-1.96429 -3.080358,-1.96429 -2.544642,0 -8.705357,0 -8.705357,0 0,0 -6.294643,0 -6.294643,2.14286 0,2.14285 5.982143,1.85268 5.982143,1.85268 l 7.96875,0 c 0,0 4.129465,0.0893 4.129465,-2.03125 z"
       id="path3028"
       inkscape:connector-curvature="0" />
    <path
       style="color:#000000;fill:none;stroke:#800000;stroke-width:1px;stroke-linecap:butt;stroke-linejoin:miter;stroke-miterlimit:4;stroke-opacity:1;stroke-dasharray:none;stroke-dashoffset:0;marker:none;visibility:visible;display:inline;overflow:visible;enable-background:accumulate"
       d="m 51.205357,655.04075 0,-2.63393 c 0,0 0.133929,-1.51785 -2.8125,-4.46428 -2.946428,-2.94643 -3.816964,-2.90179 -3.816964,-2.90179 0,0 -1.116071,-0.4241 -1.116071,0.78125 0,1.20536 1.450892,3.72768 1.450892,3.72768 0,0 0.290179,0.42411 0.290179,1.29464 0,0.87054 0,3.37054 0,3.37054 l -1.808036,0 c 0,0 -1.124399,-0.1005 -1.124399,1.94752 0,2.04802 0.588685,2.65069 1.325292,2.65069 0.736607,0 1.584822,0 1.584822,0 l 0,4.33036 c 0,0 0.223214,0.625 -0.803572,2.00893 -1.026786,1.38393 -1.160714,2.00893 -1.138393,2.87946 0.02232,0.87054 0.357143,2.27679 3.883929,-0.84821 3.526786,-3.125 3.973214,-6.38393 4.0625,-7.12054 0.08929,-0.7366 0.02232,-5.02232 0.02232,-5.02232 z"
       id="path3030"
       inkscape:connector-curvature="0" />
    <path
       style="color:#000000;fill:none;stroke:#800000;stroke-width:1px;stroke-linecap:butt;stroke-linejoin:miter;stroke-miterlimit:4;stroke-opacity:1;stroke-dasharray:none;stroke-dashoffset:0;marker:none;visibility:visible;display:inline;overflow:visible;enable-background:accumulate"
       d="m 684.15179,616.9604 0,13.30357 16.69643,0 0,-13.30357 z"
       id="path3034"
       inkscape:connector-curvature="0" />
    <path
       style="color:#000000;fill:none;stroke:#800000;stroke-width:1px;stroke-linecap:butt;stroke-linejoin:miter;stroke-miterlimit:4;stroke-opacity:1;stroke-dasharray:none;stroke-dashoffset:0;marker:none;visibility:visible;display:inline;overflow:visible;enable-background:accumulate"
       d="m 715.12487,628.16125 c 0,0 -0.47351,-1.6415 8.23906,-1.6415 8.71256,0 12.78474,0.31567 12.78474,1.45209 0,1.13642 -3.83993,1.63943 -6.11841,1.63943 -2.27848,0 -15.06323,0.0968 -14.90539,-1.45002 z"
       id="path3036"
       inkscape:connector-curvature="0" />
    <rect
       style="fill:none;stroke:#800000;stroke-width:1.01975811"
       id="rect3040"
       width="21.140957"
       height="26.021961"
       x="764.117"
       y="637.01495" />
    <path
       style="color:#000000;fill:none;stroke:#800000;stroke-width:1px;stroke-linecap:butt;stroke-linejoin:miter;stroke-miterlimit:4;stroke-opacity:1;stroke-dasharray:none;stroke-dashoffset:0;marker:none;visibility:visible;display:inline;overflow:visible;enable-background:accumulate"
       d="m 766.07444,639.17822 0,5.99778 16.98319,0 c 0,0 1.01016,0.0757 1.01016,-1.01015 0,-1.08588 0,-4.11043 0,-4.11043 0,0 0.0335,-1.04426 -1.04426,-1.04426 -1.07773,0 -16.95942,0 -16.95942,0 z"
       id="path3042"
       inkscape:connector-curvature="0" />
    <path
       style="color:#000000;fill:none;stroke:#800000;stroke-width:1px;stroke-linecap:butt;stroke-linejoin:miter;stroke-miterlimit:4;stroke-opacity:1;stroke-dasharray:none;stroke-dashoffset:0;marker:none;visibility:visible;display:inline;overflow:visible;enable-background:accumulate"
       d="m 766.03966,647.06503 0,5.99778 16.98319,0 c 0,0 1.01016,0.0757 1.01016,-1.01015 0,-1.08588 0,-4.11043 0,-4.11043 0,0 0.0335,-1.04426 -1.04426,-1.04426 -1.07773,0 -16.95942,0 -16.95942,0 z"
       id="path3042-1"
       inkscape:connector-curvature="0" />
    <path
       style="color:#000000;fill:none;stroke:#800000;stroke-width:1px;stroke-linecap:butt;stroke-linejoin:miter;stroke-miterlimit:4;stroke-opacity:1;stroke-dasharray:none;stroke-dashoffset:0;marker:none;visibility:visible;display:inline;overflow:visible;enable-background:accumulate"
       d="m 766.12005,655.12131 0,5.99778 16.98319,0 c 0,0 1.01016,0.0757 1.01016,-1.01015 0,-1.08588 0,-4.11043 0,-4.11043 0,0 0.0335,-1.04426 -1.04426,-1.04426 -1.07773,0 -16.95942,0 -16.95942,0 z"
       id="path3042-7"
       inkscape:connector-curvature="0" />
    <path
       style="color:#000000;fill:none;stroke:#800000;stroke-width:1px;stroke-linecap:butt;stroke-linejoin:miter;stroke-miterlimit:4;stroke-opacity:1;stroke-dasharray:none;stroke-dashoffset:0;marker:none;visibility:visible;display:inline;overflow:visible;enable-background:accumulate"
       d="m 688.10329,624.46788 0,1.51523 9.02824,0 0,-1.4521 -0.0316,-0.53664"
       id="path3069"
       inkscape:connector-curvature="0"
       sodipodi:nodetypes="ccccc" />
    <path
       style="display:inline;color:#000000;fill:none;stroke:#800000;stroke-width:1px;stroke-linecap:butt;stroke-linejoin:miter;stroke-miterlimit:4;stroke-opacity:1;stroke-dasharray:none;stroke-dashoffset:0;marker:none;visibility:visible;overflow:visible;enable-background:accumulate"
       d="m 692.10938,618.46709 0,7.03125"
       id="path3091"
       inkscape:connector-curvature="0" />
    <path
       style="display:inline;color:#000000;fill:none;stroke:#800000;stroke-width:1px;stroke-linecap:butt;stroke-linejoin:miter;stroke-miterlimit:4;stroke-opacity:1;stroke-dasharray:none;stroke-dashoffset:0;marker:none;visibility:visible;overflow:visible;enable-background:accumulate"
       d="m 693.08036,625.48718 0,-7.02009 0,7.05357"
       id="path3093"
       inkscape:connector-curvature="0" />
    <rect
       style="display:inline;fill:none;stroke:#800000;stroke-width:1.06713474000000000"
       id="rect3095"
       width="2.9574189"
       height="0.95965105"
       x="691.11615"
       y="619.99622" />
  </g>
</svg>
