<?xml version="1.0" encoding="utf-8"?>
<!-- Generator: Adobe Illustrator 15.1.0, SVG Export Plug-In . SVG Version: 6.00 Build 0)  -->
<!DOCTYPE svg PUBLIC "-//W3C//DTD SVG 1.1//EN" "http://www.w3.org/Graphics/SVG/1.1/DTD/svg11.dtd">
<svg version="1.1"
	 id="svg2996" sodipodi:docname="usa_battleship_hull_0.svg" inkscape:version="0.48.4 r9939" xmlns:dc="http://purl.org/dc/elements/1.1/" xmlns:cc="http://creativecommons.org/ns#" xmlns:rdf="http://www.w3.org/1999/02/22-rdf-syntax-ns#" xmlns:svg="http://www.w3.org/2000/svg" xmlns:sodipodi="http://sodipodi.sourceforge.net/DTD/sodipodi-0.dtd" xmlns:inkscape="http://www.inkscape.org/namespaces/inkscape"
	 xmlns="http://www.w3.org/2000/svg" xmlns:xlink="http://www.w3.org/1999/xlink" x="0px" y="0px" width="2048px"
	 height="1052.36px" viewBox="0 0 2048 1052.36" enable-background="new 0 0 2048 1052.36" xml:space="preserve">
<sodipodi:namedview  inkscape:window-y="-8" inkscape:window-x="-8" inkscape:window-height="1018" inkscape:window-width="1920" inkscape:current-layer="layer1" inkscape:document-units="px" inkscape:pageshadow="2" inkscape:pageopacity="0.0" id="base" showgrid="false" inkscape:cy="462.18885" inkscape:cx="1060.6096" inkscape:zoom="5.6" borderopacity="1.0" bordercolor="#666666" pagecolor="#ffffff" inkscape:window-maximized="1">
	</sodipodi:namedview>
<g id="layer1" transform="translate(0,-0.00218262)" sodipodi:insensitive="true" inkscape:groupmode="layer" inkscape:label="Layer 1" display="none">
	
		<image display="inline" overflow="visible" enable-background="new    " width="1829" height="520" id="image3012" xlink:href="332B30C7.png"  transform="matrix(1 0 0 1 162.6428 300.9338)">
	</image>
</g>
<g id="layer2" sodipodi:insensitive="true" inkscape:groupmode="layer" inkscape:label="Layer">
	<path id="path3018" sodipodi:nodetypes="cccccccc" inkscape:connector-curvature="0" fill="none" stroke="#000000" d="
		M193.949,690.221l0.929,7.723l1.091,8.098l0.654,5.047l0.929,5.969l2.092,5.916l1.629,5.242l5.304,9.986"/>
	
		<path id="path3020" sodipodi:nodetypes="ccccccccccccccccccccccccccccccccccccccccccccccccccc" inkscape:connector-curvature="0" fill="none" stroke="#000000" d="
		M193.697,690.536l40.407,1.604l24.75,1.172l29.045,0.969l29.922,0.912l29.29,0.67l178.043,1.695l27.652,0.176l545.86-0.021
		l426.663,0.367l66.039-1.109l30.178-0.801l30.811-0.955l25.001-1.348l16.54-1.082l16.162-0.838l15.659-0.719l15.783-0.855
		l15.784-0.994l14.27-1.246l15.529-1.271l13.889-0.898l12.502-1.01l10.605-0.742l11.37-0.881l10.1-0.883l10.73-1.018l10.225-1.016
		l9.725-1.146l10.605-1.164l9.592-1.16l10.101-1.178l9.603-0.918l10.355-0.93l8.838-0.916l6.313-0.746l4.297-1.721l2.396-1.441
		l2.907-2.898l0.754-1.547l4.922-0.117l0.381-1.043l11.998-0.035l0.126,9.471l-1.109,2.695l-1.157,2.971l-0.92,2.262l-32.296,32.098
		l-2.361,2.729l-1.9,2.156l-1.925,4.84"/>
	<path id="path3058" inkscape:connector-curvature="0" fill="none" stroke="#000000" d="M1927.876,722.672v11.615H204.682"/>
	<path id="path3060" inkscape:connector-curvature="0" fill="none" stroke="#000000" d="M206.072,737.319h1721.931v-3.662"/>
	<path id="path3062" inkscape:connector-curvature="0" fill="none" stroke="#000000" d="M1380.625,697.797l-13.132-16.164H1159.15
		l-13.637,16.668"/>
	<path id="path3064" inkscape:connector-curvature="0" fill="none" stroke="#000000" d="M1279.611,681.381l-5.304-23.99v-18.436
		h10.859v-24.75h-51.013"/>
	<path id="path3066" inkscape:connector-curvature="0" fill="none" stroke="#000000" d="M741.199,697.922v-33.461h-22.098v-2.146
		h9.344v-9.092l-3.661-2.777h7.576v-6.061h31.062v8.08h-4.293v9.977h-40.027"/>
	<path id="path3068" inkscape:connector-curvature="0" fill="none" stroke="#000000" d="M741.073,664.588h18.184v-2.525"/>
	<path id="path3070" inkscape:connector-curvature="0" fill="none" stroke="#000000" d="M759.256,654.487h148.871v-2.146H759.382
		L759.256,654.487z"/>
	<path id="path3072" inkscape:connector-curvature="0" fill="none" stroke="#000000" d="M772.261,652.34v-20.961h73.994v5.43h26.138
		"/>
	<path id="path3074" inkscape:connector-curvature="0" fill="none" stroke="#000000" d="M790.949,652.34l-1.895-2.273l0.127-11.742
		l2.777-1.895v0.252h59.852"/>
	<path id="path3076" inkscape:connector-curvature="0" fill="none" stroke="#000000" d="M871.888,636.809l2.525,2.02v11.617
		l-2.021,1.768"/>
	<path id="path3078" inkscape:connector-curvature="0" fill="none" stroke="#000000" d="M877.318,652.465v-31.063h-3.031
		l-1.136-0.883v-1.264l6.187-0.125l0.127,1.137l-1.642,1.262"/>
	<path id="path3080" inkscape:connector-curvature="0" fill="none" stroke="#000000" d="M877.065,619.256v-40.658h-14.016"/>
	<path id="path3082" inkscape:connector-curvature="0" fill="none" stroke="#000000" d="M876.939,603.473h-10.859v1.895"/>
	<path id="path3084" inkscape:connector-curvature="0" fill="none" stroke="#000000" d="M877.191,609.282l-10.985-3.914"/>
	<path id="path3088" inkscape:connector-curvature="0" fill="none" stroke="#000000" d="M877.318,587.184l-4.167-5.809l-9.597-2.525
		"/>
	<path id="path3090" inkscape:connector-curvature="0" fill="none" stroke="#000000" d="M863.301,578.346l-1.01-1.895h70.079v66.039
		h40.659v2.904h-77.782v-2.904h37.123"/>
	<path id="path3092" inkscape:connector-curvature="0" fill="none" stroke="#000000" d="M850.295,697.797v-14.521h14.017v-7.955
		h-16.92v7.955h6.692"/>
	<path id="path3094" inkscape:connector-curvature="0" fill="none" stroke="#000000" d="M864.185,682.391h110.991V647.29h3.03
		v44.193"/>
	<path id="path3096" inkscape:connector-curvature="0" fill="none" stroke="#000000" d="M966.211,691.483h93.564v6.188"/>
	<path id="path3098" inkscape:connector-curvature="0" fill="none" stroke="#000000" d="M1063.312,697.418V647.29h-3.157v-1.895
		h-81.822v46.088"/>
	<path id="path3100" inkscape:connector-curvature="0" fill="none" stroke="#000000" d="M978.332,649.436h81.949v-2.4"/>
	<path id="path3102" inkscape:connector-curvature="0" fill="none" stroke="#000000" d="M1060.029,649.309v48.234"/>
	<path id="path3104" inkscape:connector-curvature="0" fill="none" stroke="#000000" d="M965.958,691.483l-2.272,3.031l-3.789,1.01
		l-1.01,2.146"/>
	<path id="path3106" inkscape:connector-curvature="0" fill="none" stroke="#000000" d="M1051.316,645.647v-6.061h-71.847v-2.02
		h57.831v7.576"/>
	<path id="path3108" inkscape:connector-curvature="0" fill="none" stroke="#000000" d="M979.343,645.522v-8.334h-4.925v4.039
		h-1.516v6.566h5.683"/>
	<path id="path3110" inkscape:connector-curvature="0" fill="none" stroke="#000000" d="M978.206,637.44v-24.117h-40.153v29.295"/>
	<path id="path3112" inkscape:connector-curvature="0" fill="none" stroke="#000000" d="M1037.047,639.713v-3.283h40.785v-11.996
		h-33.082v-3.031h102.151"/>
	<path id="path3114" inkscape:connector-curvature="0" fill="none" stroke="#000000" d="M1077.706,624.561h69.7"/>
	<path id="path3116" inkscape:connector-curvature="0" fill="none" stroke="#000000" d="M1099.298,624.813v24.623"/>
	<path id="path3118" inkscape:connector-curvature="0" fill="none" stroke="#000000" d="M1051.316,636.176v-11.49"/>
	<path id="path3120" inkscape:connector-curvature="0" fill="none" stroke="#000000" d="M1051.316,621.278v-47.73"/>
	<path id="path3122" inkscape:connector-curvature="0" fill="none" stroke="#000000" d="M1147.155,624.686l4.167-4.039"/>
	<path id="path3124" inkscape:connector-curvature="0" fill="none" stroke="#000000" d="M1147.155,621.403l4.293-4.039h33.588"/>
	<path id="path3126" inkscape:connector-curvature="0" fill="none" stroke="#000000" d="M1151.448,620.647h32.956"/>
	<path id="path3128" inkscape:connector-curvature="0" fill="none" stroke="#000000" d="M1183.899,620.393l2.904,3.283h35.229
		v-3.283h-33.84l-3.283-3.029"/>
	<path id="path3130" inkscape:connector-curvature="0" fill="none" stroke="#000000" d="M1192.233,620.268v-27.779h-32.957v-15.91
		h18.436v-8.713h-35.481v8.459h-24.875v-2.902h-66.67"/>
	<path id="path3132" inkscape:connector-curvature="0" fill="none" stroke="#000000" d="M1110.915,573.547v-9.092h1.263v-11.363
		h6.439v-9.219h13.637v-2.271h-51.77v-3.283h28.662v3.029"/>
	<path id="path3134" inkscape:connector-curvature="0" fill="none" stroke="#000000" d="M1159.276,567.487v-42.047h27.779v-2.146
		h-27.905v2.02"/>
	<path id="path3136" inkscape:connector-curvature="0" fill="none" stroke="#000000" d="M1159.276,523.166h-54.927v2.146h39.144
		v3.032h9.597v-2.905h6.565"/>
	<path id="path3138" inkscape:connector-curvature="0" fill="none" stroke="#000000" d="M1159.15,544.379h-23.991v-18.94h2.021
		v18.813"/>
	<path id="path3144" inkscape:connector-curvature="0" fill="none" stroke="#000000" d="M1159.276,523.166v-10.985l-3.156-10.606
		h-15.91l-3.03,10.985v10.859"/>
	<path id="path3146" inkscape:connector-curvature="0" fill="none" stroke="#000000" d="M1115.208,541.602v-11.365h0.884v-4.924"/>
	<path id="path3148" inkscape:connector-curvature="0" fill="none" stroke="#000000" d="M1116.092,522.787v-6.313h8.839v-1.136
		h5.304v7.828"/>
	<path id="path3150" inkscape:connector-curvature="0" fill="none" stroke="#000000" d="M1127.835,543.622v11.111h2.272V543.37"/>
	<path id="path3152" inkscape:connector-curvature="0" fill="none" stroke="#000000" d="M1177.838,567.487l3.03-7.197l-21.593-5.051
		"/>
	<path id="path3154" inkscape:connector-curvature="0" fill="none" stroke="#000000" d="M1176.574,560.542l-2.903,7.072"/>
	<path id="path3156" inkscape:connector-curvature="0" fill="none" stroke="#000000" d="M1180.364,560.417h-21.214v7.07h7.576
		v-6.945"/>
	<path id="path3158" inkscape:connector-curvature="0" fill="none" stroke="#000000" d="M1132.254,543.749h-22.729v-2.4h5.936"/>
	<path id="path3160" inkscape:connector-curvature="0" fill="none" stroke="#000000" d="M1112.43,541.602v-61.241h-3.409v61.241
		H1112.43z"/>
	<path id="path3162" inkscape:connector-curvature="0" fill="none" stroke="#000000" d="M1109.021,521.398h-23.485v-1.894h23.738"/>
	<path id="path3164" inkscape:connector-curvature="0" fill="none" stroke="#000000" d="M1109.274,501.574h-32.956v-2.021h32.829"/>
	<path id="path3166" inkscape:connector-curvature="0" fill="none" stroke="#000000" d="M1112.557,480.613h18.688v-2.02h-72.1v1.894
		h50.129"/>
	<path id="path3168" inkscape:connector-curvature="0" fill="none" stroke="#000000" d="M1076.318,478.467v-38.133h-3.283v38.638"/>
	<path id="path3170" inkscape:connector-curvature="0" fill="none" stroke="#000000" d="M1065.205,478.72v-84.095h-2.398v83.969"/>
	<path id="path3172" inkscape:connector-curvature="0" fill="none" stroke="#000000" d="M1062.554,480.487l19.698,37.123"/>
	<path id="path3176" inkscape:connector-curvature="0" fill="none" stroke="#000000" d="M1065.711,480.613l18.939,35.734"/>
	<path id="path3178" inkscape:connector-curvature="0" fill="none" stroke="#000000" d="M1108.769,496.776l-14.396-13.764"/>
	<path id="path3180" inkscape:connector-curvature="0" fill="none" stroke="#000000" d="M1108.39,499.302l-14.9-13.764"/>
	<path id="path3182" inkscape:connector-curvature="0" fill="none" stroke="#000000" d="M1094.5,480.74l-33.462,140.79"/>
	<path id="path3184" inkscape:connector-curvature="0" fill="none" stroke="#000000" d="M1091.091,480.613l-33.714,141.043"/>
	<path id="path3186" inkscape:connector-curvature="0" fill="none" stroke="#000000" d="M1086.924,498.165l-11.364-14.016"/>
	<path id="path3188" inkscape:connector-curvature="0" fill="none" stroke="#000000" d="M1087.303,495.387l-11.617-14.268"/>
	<path id="path3190" inkscape:connector-curvature="0" fill="none" stroke="#000000" d="M1089.828,503.09l15.909,16.036"/>
	<path id="path3192" inkscape:connector-curvature="0" fill="none" stroke="#000000" d="M1092.606,501.448l16.289,16.667"/>
	<path id="path3194" inkscape:connector-curvature="0" fill="none" stroke="#000000" d="M1107.885,538.067l-20.709-16.542"/>
	<path id="path3196" inkscape:connector-curvature="0" fill="none" stroke="#000000" d="M1104.096,538.319l-19.445-15.405"/>
	<path id="path3198" inkscape:connector-curvature="0" fill="none" stroke="#000000" d="M1073.287,480.487v14.395"/>
	<path id="path3200" inkscape:connector-curvature="0" fill="none" stroke="#000000" d="M1075.181,480.487v17.678"/>
	<path id="path3202" inkscape:connector-curvature="0" fill="none" stroke="#000000" d="M1107.127,542.233l7.449,6.061"/>
	<path id="path3204" inkscape:connector-curvature="0" fill="none" stroke="#000000" d="M1102.328,573.422v-3.283h-53.032"/>
	<path id="path3206" inkscape:connector-curvature="0" fill="none" stroke="#000000" d="M1051.316,573.547l-2.398-3.283"/>
	<path id="path3208" inkscape:connector-curvature="0" fill="none" stroke="#000000" d="M1111.925,553.092l2.651-3.662l-0.126-6.061
		"/>
	<path id="path3210" inkscape:connector-curvature="0" fill="none" stroke="#000000" d="M1117.481,573.547h24.749"/>
	<path id="path3212" inkscape:connector-curvature="0" fill="none" stroke="#000000" d="M1142.104,576.325h19.066"/>
	<path id="path3214" inkscape:connector-curvature="0" fill="none" stroke="#000000" d="M1131.244,649.309v2.146h-51.013v-2.02
		h61.114"/>
	<path id="path3216" inkscape:connector-curvature="0" fill="none" stroke="#000000" d="M1194.379,666.608v-16.162h-54.17v-1.01"/>
	<path id="path3218" inkscape:connector-curvature="0" fill="none" stroke="#000000" d="M1194.126,650.573v-2.021"/>
	<path id="path3220" inkscape:connector-curvature="0" fill="none" stroke="#000000" d="M1126.194,697.797v-15.406h32.704"/>
	<path id="path3222" inkscape:connector-curvature="0" fill="none" stroke="#000000" d="M1148.038,682.518v-15.91h104.298v14.9"/>
	<path id="path3224" inkscape:connector-curvature="0" fill="none" stroke="#000000" d="M1222.158,666.102v-15.404h-19.951v16.037"
		/>
	<path id="path3226" inkscape:connector-curvature="0" fill="none" stroke="#000000" d="M1285.166,639.586h-135.739v-12.248h57.958"
		/>
	<path id="path3228" inkscape:connector-curvature="0" fill="none" stroke="#000000" d="M1285.292,629.737h-63.134v-5.303h63.008
		L1285.292,629.737z"/>
	<path id="path3230" inkscape:connector-curvature="0" fill="none" stroke="#000000" d="M1283.146,624.434v5.051"/>
	<path id="path3232" inkscape:connector-curvature="0" fill="none" stroke="#000000" d="M1279.106,624.307v5.051"/>
	<path id="path3234" inkscape:connector-curvature="0" fill="none" stroke="#000000" d="M1275.318,624.561v4.797"/>
	<path id="path3236" inkscape:connector-curvature="0" fill="none" stroke="#000000" d="M1271.277,624.561v5.303"/>
	<path id="path3238" inkscape:connector-curvature="0" fill="none" stroke="#000000" d="M1267.237,624.434v4.799"/>
	<path id="path3240" inkscape:connector-curvature="0" fill="none" stroke="#000000" d="M1262.438,624.307v5.305"/>
	<path id="path3242" inkscape:connector-curvature="0" fill="none" stroke="#000000" d="M1257.387,624.307v5.305"/>
	<path id="path3244" inkscape:connector-curvature="0" fill="none" stroke="#000000" d="M1252.336,624.307v4.926"/>
	<path id="path3246" inkscape:connector-curvature="0" fill="none" stroke="#000000" d="M1247.033,624.434v5.178"/>
	<path id="path3248" inkscape:connector-curvature="0" fill="none" stroke="#000000" d="M1242.362,624.182v5.43"/>
	<path id="path3250" inkscape:connector-curvature="0" fill="none" stroke="#000000" d="M1237.563,624.307v5.305"/>
	<path id="path3252" inkscape:connector-curvature="0" fill="none" stroke="#000000" d="M1232.26,624.561v5.051"/>
	<path id="path3254" inkscape:connector-curvature="0" fill="none" stroke="#000000" d="M1227.335,624.561v5.051"/>
	<path id="path3256" inkscape:connector-curvature="0" fill="none" stroke="#000000" d="M1222.41,624.434v5.43"/>
	<path id="path3258" inkscape:connector-curvature="0" fill="none" stroke="#000000" d="M1260.291,639.334v27.146h-8.207"/>
	<path id="path3260" inkscape:connector-curvature="0" fill="none" stroke="#000000" d="M1259.912,644.385h-24.875v-5.051"/>
	<path id="path3262" inkscape:connector-curvature="0" fill="none" stroke="#000000" d="M1240.088,639.713v4.545"/>
	<path id="path3264" inkscape:connector-curvature="0" fill="none" stroke="#000000" d="M1245.392,639.586v4.799"/>
	<path id="path3266" inkscape:connector-curvature="0" fill="none" stroke="#000000" d="M1250.064,639.713v4.797"/>
	<path id="path3268" inkscape:connector-curvature="0" fill="none" stroke="#000000" d="M1255.24,639.459v4.799"/>
	<path id="path3270" inkscape:connector-curvature="0" fill="none" stroke="#000000" d="M1234.911,642.491h-14.143v3.914h3.409
		v4.041h-24.369v-4.041h22.602"/>
	<path id="path3272" inkscape:connector-curvature="0" fill="none" stroke="#000000" d="M1146.144,682.518v-9.471h-10.354v4.42
		h-0.632v5.178"/>
	<path id="path3274" inkscape:connector-curvature="0" fill="none" stroke="#000000" d="M1185.792,666.356l13.259,15.531"/>
	<path id="path3276" inkscape:connector-curvature="0" fill="none" stroke="#000000" d="M984.267,639.586v5.682"/>
	<path id="path3278" inkscape:connector-curvature="0" fill="none" stroke="#000000" d="M991.212,639.208v6.188"/>
	<path id="path3280" inkscape:connector-curvature="0" fill="none" stroke="#000000" d="M998.031,639.586v5.809"/>
	<path id="path3282" inkscape:connector-curvature="0" fill="none" stroke="#000000" d="M1005.228,639.586v5.557"/>
	<path id="path3284" inkscape:connector-curvature="0" fill="none" stroke="#000000" d="M1012.299,639.459v6.063"/>
	<path id="path3286" inkscape:connector-curvature="0" fill="none" stroke="#000000" d="M1019.496,639.713v5.43"/>
	<path id="path3288" inkscape:connector-curvature="0" fill="none" stroke="#000000" d="M1026.189,639.334v5.809"/>
	<path id="path3290" inkscape:connector-curvature="0" fill="none" stroke="#000000" d="M1033.26,639.586v5.936"/>
	<path id="path3292" inkscape:connector-curvature="0" fill="none" stroke="#000000" d="M912.167,697.292v-3.031h-1.01v-19.949
		h-9.976l-2.021,2.398v21.088"/>
	<path id="path3294" inkscape:connector-curvature="0" fill="none" stroke="#000000" d="M903.076,665.598h-43.058v2.146h43.058
		V665.598z"/>
	<path id="path3296" inkscape:connector-curvature="0" fill="none" stroke="#000000" d="M903.076,665.219l8.333-19.697"/>
	<path id="path3298" inkscape:connector-curvature="0" fill="none" stroke="#000000" d="M908.253,674.311l-5.177-6.439"/>
	<path id="path3300" inkscape:connector-curvature="0" fill="none" stroke="#000000" d="M905.728,674.311l-5.683-6.314"/>
	<path id="path3302" inkscape:connector-curvature="0" fill="none" stroke="#000000" d="M893.606,697.797l6.062-10.986"/>
	<path id="path3304" inkscape:connector-curvature="0" fill="none" stroke="#000000" d="M890.323,697.67l8.334-15.152"/>
	<path id="path3306" inkscape:connector-curvature="0" fill="none" stroke="#000000" d="M759.003,664.461l1.137,1.137l26.011-0.252
		l2.021-2.021l0.126-9.217"/>
	<path id="path3308" inkscape:connector-curvature="0" fill="none" stroke="#000000" d="M820.243,697.797v-14.143h1.137v-2.146
		h-1.263v-14.9h1.389v-2.273h-1.263v-36.869h-9.091v36.996h-1.137v2.02h1.263v15.027h-1.263v2.02h1.263v13.891"/>
	<path id="path3310" inkscape:connector-curvature="0" fill="none" stroke="#000000" d="M821.127,683.401h-10.858"/>
	<path id="path3312" inkscape:connector-curvature="0" fill="none" stroke="#000000" d="M821.38,681.254h-11.364"/>
	<path id="path3314" inkscape:connector-curvature="0" fill="none" stroke="#000000" d="M821.506,666.356h-11.49"/>
	<path id="path3316" inkscape:connector-curvature="0" fill="none" stroke="#000000" d="M821.633,664.334H809.89"/>
	<path id="path3318" inkscape:connector-curvature="0" fill="none" stroke="#000000" d="M821.254,631.504v-7.828h-1.011v-15.404
		h-0.884v-7.828h-16.289l-8.081,30.809"/>
	<path id="path3320" inkscape:connector-curvature="0" fill="none" stroke="#000000" d="M742.083,662.442l0.252-8.967l-3.282-2.902
		h-6.566"/>
	<path id="path3322" inkscape:connector-curvature="0" fill="none" stroke="#000000" d="M732.108,662.567l0.253-9.344l-3.409-2.904"
		/>
	<path id="path3324" inkscape:connector-curvature="0" fill="none" stroke="#000000" d="M1234.658,613.954l-12.627,4.799"/>
	<path id="path3326" inkscape:connector-curvature="0" fill="none" stroke="#000000" d="M1222.031,620.268v-1.77"/>
	<path id="path3328" inkscape:connector-curvature="0" fill="none" stroke="#000000" d="M1206.879,627.844l8.334,1.262l8.334,0.252"
		/>
	<path id="path3330" inkscape:connector-curvature="0" fill="none" stroke="#000000" d="M1179.606,627.59v-7.07"/>
	<path id="path3332" inkscape:connector-curvature="0" fill="none" stroke="#000000" d="M1158.897,627.338v-7.07"/>
	<path id="path3334" inkscape:connector-curvature="0" fill="none" stroke="#000000" d="M1063.691,682.645h94.449"/>
	<path id="path3336" inkscape:connector-curvature="0" fill="none" stroke="#000000" d="M1063.438,665.219h35.355l13.385,17.172"/>
	<path id="path3338" inkscape:connector-curvature="0" fill="none" stroke="#000000" d="M1078.085,665.219v-26.012h-27.021"/>
	<path id="path3340" inkscape:connector-curvature="0" fill="none" stroke="#000000" d="M1854.107,681.825v-16.607h-23.393v18.75"/>
	<path id="path3342" inkscape:connector-curvature="0" fill="none" stroke="#000000" d="M1834.107,683.252v-12.678h16.965v11.428"/>
	<path id="path3344" inkscape:connector-curvature="0" fill="none" stroke="#000000" d="M1851.072,670.752v-1.963h-16.786"/>
	<path id="path3346" inkscape:connector-curvature="0" fill="none" stroke="#000000" d="M1834.107,670.932v-5.537"/>
	<path id="path3348" inkscape:connector-curvature="0" fill="none" stroke="#000000" d="M1850.893,670.752v-5.713"/>
	<path id="path3350" inkscape:connector-curvature="0" fill="none" stroke="#000000" d="M1849.285,665.04v-6.43h-11.965v6.607"/>
	<path id="path3352" inkscape:connector-curvature="0" fill="none" stroke="#000000" d="M1844.107,658.432V593.61h-2.321v65"/>
	<path id="path3354" inkscape:connector-curvature="0" fill="none" stroke="#000000" d="M1865.357,637.36v2.143h-44.821v-2.32
		L1865.357,637.36z"/>
	<path id="path3356" inkscape:connector-curvature="0" fill="none" stroke="#000000" d="M1828.214,593.075h28.75"/>
	<path id="path3358" inkscape:connector-curvature="0" fill="none" stroke="#000000" d="M1967.143,663.252v-44.107h-1.607v44.107"/>
	<path id="path3360" inkscape:connector-curvature="0" fill="none" stroke="#000000" d="M1957.678,663.252l7.857-14.107"/>
	<path id="path3362" inkscape:connector-curvature="0" fill="none" stroke="#000000" d="M1851.072,679.325l-16.786-7.143"/>
	<path id="path3364" inkscape:connector-curvature="0" fill="none" stroke="#000000" d="M1850.714,672.36l-16.429,7.322"/>
	<path id="path3366" inkscape:connector-curvature="0" fill="none" stroke="#000000" d="M201.429,690.752v-7.143h-6.072v6.965"/>
	<path id="path3368" inkscape:connector-curvature="0" fill="none" stroke="#000000" d="M203.393,688.61v13.93h31.786v-14.107h-8.75
		v0.893h-3.215v1.25h-11.071v-1.43h-3.571v-0.713L203.393,688.61z"/>
	<path id="path3370" inkscape:connector-curvature="0" fill="none" stroke="#000000" d="M197.679,683.252l-4.822-27.857l-2.5-0.178
		l5.536,28.393"/>
	<path id="path3372" inkscape:connector-curvature="0" fill="none" stroke="#000000" d="M932.37,576.579v-2.525h-55.053v2.525"/>
	<path id="path3374" sodipodi:nodetypes="ccccccccccc" inkscape:connector-curvature="0" fill="none" stroke="#000000" d="
		M878.074,573.547v-9.596l10.986-4.904l7.536-4.563l8.483-5.326l3.804-3.391l6.313-0.252l4.583,4.365l3.778,5.416l3.405,6.885
		l2.629,11.365"/>
	<path id="path3374-1" sodipodi:nodetypes="ccccccccccc" inkscape:connector-curvature="0" fill="none" stroke="#000000" d="
		M1052.098,570.483v-9.596l10.985-4.904l7.537-4.563l8.483-5.326l3.804-3.391l6.313-0.252l4.582,4.365l3.779,5.414l3.404,6.887
		l2.629,11.365"/>
</g>
<path fill="none" stroke="#000000" d="M1927.834,722.43c0.055,0.17,0.108,0.332,0.167,0.5"/>
<path fill="none" stroke="#000000" d="M965.668,691.763c0.354-0.01,0.687-0.094,1-0.25"/>
</svg>
