<?xml version="1.0" encoding="UTF-8" standalone="no"?>
<!-- Created with Inkscape (http://www.inkscape.org/) -->

<svg
   xmlns:dc="http://purl.org/dc/elements/1.1/"
   xmlns:cc="http://creativecommons.org/ns#"
   xmlns:rdf="http://www.w3.org/1999/02/22-rdf-syntax-ns#"
   xmlns:svg="http://www.w3.org/2000/svg"
   xmlns="http://www.w3.org/2000/svg"
   xmlns:sodipodi="http://sodipodi.sourceforge.net/DTD/sodipodi-0.dtd"
   xmlns:inkscape="http://www.inkscape.org/namespaces/inkscape"
   width="744.09448819"
   height="1052.3622047"
   id="svg6220"
   version="1.1"
   inkscape:version="0.48.4 r9939"
   sodipodi:docname="SOV_ballistic_missile_submarine_hull_0_GENERAL.svg">
  <defs
     id="defs6222" />
  <sodipodi:namedview
     id="base"
     pagecolor="#ffffff"
     bordercolor="#666666"
     borderopacity="1.0"
     inkscape:pageopacity="0.0"
     inkscape:pageshadow="2"
     inkscape:zoom="5.6568543"
     inkscape:cx="50.799527"
     inkscape:cy="476.66323"
     inkscape:document-units="px"
     inkscape:current-layer="layer1"
     showgrid="false"
     inkscape:window-width="2560"
     inkscape:window-height="1388"
     inkscape:window-x="-8"
     inkscape:window-y="-8"
     inkscape:window-maximized="1" />
  <metadata
     id="metadata6225">
    <rdf:RDF>
      <cc:Work
         rdf:about="">
        <dc:format>image/svg+xml</dc:format>
        <dc:type
           rdf:resource="http://purl.org/dc/dcmitype/StillImage" />
        <dc:title></dc:title>
      </cc:Work>
    </rdf:RDF>
  </metadata>
  <g
     inkscape:label="Outline"
     inkscape:groupmode="layer"
     id="layer1"
     style="display:inline">
    <path
       style="fill:none;stroke:#000000;stroke-width:1px;stroke-linecap:butt;stroke-linejoin:miter;stroke-opacity:1"
       d="M 72.276786,545.66575"
       id="path6243"
       inkscape:connector-curvature="0" />
    <path
       style="fill:none;stroke:#000000;stroke-width:1px;stroke-linecap:butt;stroke-linejoin:miter;stroke-opacity:1"
       d="m 73.794643,545.66575 315.848217,0 c 0,0 3.21428,0.44643 6.11607,-4.77678 2.90179,-5.22322 4.41964,-12.23215 15.3125,-21.83036 10.89286,-9.59821 18.21429,-14.41964 30.625,-14.41964 12.41071,0 19.0625,0 19.0625,0 l 3.13128,3.13128 1.39552,0 3.04953,-3.04952 13.93366,0 3.02882,3.02882 1.9746,0 3.01549,-3.0155 26.45324,0 0,-22.05937"
       id="path6245"
       inkscape:connector-curvature="0" />
    <path
       style="fill:none;stroke:#000000;stroke-width:1px;stroke-linecap:butt;stroke-linejoin:miter;stroke-opacity:1"
       d="m 516.72991,482.18361 0,1.20536"
       id="path6249"
       inkscape:connector-curvature="0" />
    <path
       style="fill:none;stroke:#000000;stroke-width:1px;stroke-linecap:butt;stroke-linejoin:miter;stroke-opacity:1"
       d="m 516.75616,504.73323 6.12405,0 0,-16.50968"
       id="path6251"
       inkscape:connector-curvature="0" />
    <path
       style="fill:none;stroke:#000000;stroke-width:1px;stroke-linecap:butt;stroke-linejoin:miter;stroke-opacity:1"
       d="m 522.78551,504.73323 21.05537,0 c 0,0 1.8309,-0.3788 3.63023,1.6415 1.79934,2.02031 2.27285,2.68322 2.27285,3.81964 0,1.13642 0,5.61897 0,5.61897 0,0 -0.63682,4.9417 -0.86003,7.39706 -0.22321,2.45535 -3.125,22.58928 -3.125,22.58928 l 147.63393,-3.25893 9.57861,-0.0215 c 0,0 1.8309,-0.15784 3.78807,0.69448 1.95717,0.85232 3.03046,2.14658 2.99889,2.96732 -0.0316,0.82075 -2.90418,52.93831 -2.90418,52.93831 0,0 -0.12627,3.6618 -2.08344,3.6618 -1.95718,0 -312.57908,0 -312.57908,0 0,0 -33.6203,-0.0618 -45.4953,-0.41898 -11.875,-0.35714 -297.500001,-6.69643 -301.339287,-6.69643 -3.839286,0 -4.919474,-0.23976 -6.087463,-1.56558 -1.167989,-1.32583 -1.948251,-3.43442 -3.600037,-3.47906 -1.651786,-0.0446 -2.924107,0 -2.924107,0"
       id="path6253"
       inkscape:connector-curvature="0" />
    <path
       style="fill:none;stroke:#000000;stroke-width:1px;stroke-linecap:butt;stroke-linejoin:miter;stroke-opacity:1"
       d="m 74.397322,545.66575 c 0,0 -2.142857,0.3125 -7.142857,-1.94196 -5,-2.25447 -4.665179,-3.03572 -7.008929,-3.03572 -2.34375,0 -27.477679,0 -27.477679,0 l 0,49.95536 -0.133928,0"
       id="path6257"
       inkscape:connector-curvature="0" />
    <path
       style="fill:none;stroke:#000000;stroke-width:1px;stroke-linecap:butt;stroke-linejoin:miter;stroke-opacity:1"
       d="m 32.767857,591.14566 0,-2.31027"
       id="path6261"
       inkscape:connector-curvature="0" />
    <path
       style="fill:none;stroke:#000000;stroke-width:1px;stroke-linecap:butt;stroke-linejoin:miter;stroke-opacity:1"
       d="m 526.74107,488.16575 0,16.96429"
       id="path6263"
       inkscape:connector-curvature="0" />
    <path
       style="fill:none;stroke:#000000;stroke-width:1px;stroke-linecap:butt;stroke-linejoin:miter;stroke-opacity:1"
       d="M 534.82143,489.4604"
       id="path6265"
       inkscape:connector-curvature="0" />
    <path
       sodipodi:type="arc"
       style="fill:none;stroke:#000000"
       id="path6333"
       sodipodi:cx="100.625"
       sodipodi:cy="577.42468"
       sodipodi:rx="34.875"
       sodipodi:ry="4.875"
       d="m 135.5,577.42468 a 34.875,4.875 0 1 1 -69.75,0 34.875,4.875 0 1 1 69.75,0 z"
       transform="matrix(1.1187697,0,0,1.1321805,-16.15602,-76.103231)" />
    <path
       sodipodi:type="arc"
       style="fill:none;stroke:#000000"
       id="path6343"
       sodipodi:cx="61.794502"
       sodipodi:cy="577.6615"
       sodipodi:rx="2.7289903"
       sodipodi:ry="2.0660777"
       d="m 62.500817,579.65718 a 2.7289903,2.0660777 0 1 1 0,-3.99136"
       sodipodi:start="1.3089969"
       sodipodi:end="4.9741884"
       sodipodi:open="true" />
    <rect
       style="fill:none;stroke:#000000;stroke-width:0.96909034"
       id="rect6351"
       width="1.4058307"
       height="0.9589873"
       x="66.095238"
       y="577.1192" />
  </g>
  <g
     inkscape:groupmode="layer"
     id="layer2"
     inkscape:label="Layer 2"
     style="display:inline">
    <path
       style="fill:none;stroke:#000000;stroke-width:1px;stroke-linecap:butt;stroke-linejoin:miter;stroke-opacity:1"
       d="m 545.75893,545.7104 -155.77691,0"
       id="path6268"
       inkscape:connector-curvature="0" />
    <path
       style="fill:none;stroke:#000000;stroke-width:1px;stroke-linecap:butt;stroke-linejoin:miter;stroke-opacity:1"
       d="m 516.75932,504.74586 0,41.13214"
       id="path6270"
       inkscape:connector-curvature="0" />
    <path
       style="fill:none;stroke:#000000;stroke-width:1px;stroke-linecap:butt;stroke-linejoin:miter;stroke-opacity:1"
       d="m 508.09375,504.66174 0,4.04688 -65.34375,0 0,-4.03125"
       id="path6272"
       inkscape:connector-curvature="0" />
    <path
       style="fill:none;stroke:#000000;stroke-width:1px;stroke-linecap:butt;stroke-linejoin:miter;stroke-opacity:1"
       d="m 709.3125,545.70593 -37.03125,0 c 0,0 -1.25,-0.25 -1.25,1.5 0,1.75 0,4.10481 0,4.10481 0,0 -0.125,1.41082 1.21875,1.41082 1.34375,0 36.9781,0 36.9781,0"
       id="path6278"
       inkscape:connector-curvature="0" />
    <path
       style="fill:none;stroke:#000000;stroke-width:1px;stroke-linecap:butt;stroke-linejoin:miter;stroke-opacity:1"
       d="m 708.03125,574.67468 -8.84375,0 c 0,0 -0.71875,-0.14062 -0.71875,1.5 0,1.64063 0,12.94417 0,12.94417"
       id="path6280"
       inkscape:connector-curvature="0" />
    <path
       style="fill:none;stroke:#000000;stroke-width:1px;stroke-linecap:butt;stroke-linejoin:miter;stroke-opacity:1;display:inline"
       d="m 706.92902,589.26401 -18.56156,0 c 0,0 -1.15457,-0.11049 -1.15457,1.15457 0,1.26506 0,9.75034 0,9.75034 0,0 -0.13811,1.1159 1.19877,1.1159 1.33687,0 17.83235,0 17.83235,0"
       id="path6282"
       inkscape:connector-curvature="0" />
    <path
       style="fill:none;stroke:#000000;stroke-width:0.99102283px;stroke-linecap:butt;stroke-linejoin:miter;stroke-opacity:1"
       d="m 36.660988,591.00025 37.653195,0"
       id="path6313"
       inkscape:connector-curvature="0" />
    <path
       style="fill:none;stroke:#000000;stroke-width:1px;stroke-linecap:butt;stroke-linejoin:miter;stroke-opacity:1"
       d="m 32.734375,563.69031 13.515625,0 c 0,0 1.515625,-0.0469 1.515625,1.51562 0,1.5625 0,26.14473 0,26.14473"
       id="path6315"
       inkscape:connector-curvature="0" />
    <path
       style="fill:none;stroke:#000000;stroke-width:1px;stroke-linecap:butt;stroke-linejoin:miter;stroke-opacity:1"
       d="m 32.814174,560.63571 59.560826,0 c 0,0 100.75159,1.30953 124.75,1.72647 23.99841,0.41695 124.5625,0.375 132.0625,0.375 7.5,0 359.6875,0 359.6875,0"
       id="path6317"
       inkscape:connector-curvature="0" />
    <path
       style="fill:none;stroke:#000000;stroke-width:1px;stroke-linecap:butt;stroke-linejoin:miter;stroke-opacity:1"
       d="m 51.50831,559.72973 c 0,0 -0.03315,-1.08828 1.088281,-1.08828 1.121427,0 7.507485,0 7.507485,0 0,0 1.812356,-0.13356 1.812356,1.04636 0,1.17992 0,2.24058 0,2.24058 0,0 0.07738,0.93142 -1.613263,0.93142 -1.690646,0 -7.811539,0 -7.811539,0 0,0 -0.929748,-0.0111 -0.929748,-0.92975 0,-0.9187 -0.05357,-2.20033 -0.05357,-2.20033 z"
       id="path6319"
       inkscape:connector-curvature="0" />
    <path
       style="fill:none;stroke:#000000;stroke-width:0.95957774px;stroke-linecap:butt;stroke-linejoin:miter;stroke-opacity:1"
       d="m 111.26114,577.60466 c 0,0 1.09569,-2.62671 -10.85268,-2.62671 -11.948362,0 -20.069278,0 -20.069278,0 0,0 -12.538341,-0.0738 -12.538341,2.5864 0,2.66013 11.66598,2.82356 11.66598,2.82356 l 23.316429,0 c 0,0 8.47789,-0.16343 8.47789,-2.78325 z"
       id="path6329"
       inkscape:connector-curvature="0" />
    <path
       sodipodi:type="arc"
       style="fill:none;stroke:#000000"
       id="path6345"
       sodipodi:cx="64.280426"
       sodipodi:cy="577.27484"
       sodipodi:rx="1.8340582"
       sodipodi:ry="7.6455922"
       d="m 66.114484,577.27484 a 1.8340582,7.6455922 0 1 1 -3.668116,0 1.8340582,7.6455922 0 1 1 3.668116,0 z" />
  </g>
</svg>
