<?xml version="1.0" encoding="UTF-8" standalone="no"?>
<!-- Created with Inkscape (http://www.inkscape.org/) -->

<svg
   xmlns:dc="http://purl.org/dc/elements/1.1/"
   xmlns:cc="http://creativecommons.org/ns#"
   xmlns:rdf="http://www.w3.org/1999/02/22-rdf-syntax-ns#"
   xmlns:svg="http://www.w3.org/2000/svg"
   xmlns="http://www.w3.org/2000/svg"
   xmlns:sodipodi="http://sodipodi.sourceforge.net/DTD/sodipodi-0.dtd"
   xmlns:inkscape="http://www.inkscape.org/namespaces/inkscape"
   width="744.09448819"
   height="1052.3622047"
   id="svg6353"
   version="1.1"
   inkscape:version="0.48.4 r9939"
   sodipodi:docname="sov_guided_submarine_hull_0_GENERAL.svg">
  <defs
     id="defs6355" />
  <sodipodi:namedview
     id="base"
     pagecolor="#ffffff"
     bordercolor="#666666"
     borderopacity="1.0"
     inkscape:pageopacity="0.0"
     inkscape:pageshadow="2"
     inkscape:zoom="7.919596"
     inkscape:cx="90.121388"
     inkscape:cy="242.91729"
     inkscape:document-units="px"
     inkscape:current-layer="layer5"
     showgrid="false"
     inkscape:window-width="1920"
     inkscape:window-height="1018"
     inkscape:window-x="-8"
     inkscape:window-y="-8"
     inkscape:window-maximized="1" />
  <metadata
     id="metadata6358">
    <rdf:RDF>
      <cc:Work
         rdf:about="">
        <dc:format>image/svg+xml</dc:format>
        <dc:type
           rdf:resource="http://purl.org/dc/dcmitype/StillImage" />
        <dc:title />
      </cc:Work>
    </rdf:RDF>
  </metadata>
  <g
     inkscape:label="Layer 1"
     inkscape:groupmode="layer"
     id="layer1"
     style="display:inline" />
  <g
     inkscape:groupmode="layer"
     id="layer3"
     inkscape:label="Hull"
     style="display:inline">
    <path
       style="fill:none;stroke:#000000;stroke-width:1px;stroke-linecap:butt;stroke-linejoin:miter;stroke-opacity:1"
       d="m 18.845659,811.47236 14.962885,0 0,21.05537 -15.057586,0 0,-21.05537"
       id="path6395"
       inkscape:connector-curvature="0" />
    <path
       style="fill:none;stroke:#000000;stroke-width:1px;stroke-linecap:butt;stroke-linejoin:miter;stroke-opacity:1"
       d="m 19.098196,833.44319 16.604383,0 0,-22.88627 -17.456699,0"
       id="path6397"
       inkscape:connector-curvature="0"
       sodipodi:nodetypes="cccc" />
    <path
       style="fill:none;stroke:#000000;stroke-width:1px;stroke-linecap:butt;stroke-linejoin:miter;stroke-opacity:1"
       d="m 17.709237,808.44191 0,-4.64039 c 0,0 -0.128991,-2.74623 1.899317,-3.28971 2.028308,-0.54349 14.957604,-4.03389 28.468394,-4.03389 13.51079,0 152.627732,0 152.627732,0 l 0,-7.79712 c 0,0 0.058,-2.71206 1.84176,-3.19001 1.78373,-0.47795 1.42678,-0.2045 2.53169,-1.30941 1.10491,-1.10491 0.80357,-1.70759 1.65178,-1.70759 0.84822,0 1.62947,0 1.62947,0 0,0 4.52494,0.59843 6.50949,1.74421 1.98454,1.14578 7.66431,2.27995 8.50887,2.27995 0.84456,0 36.28744,0 36.28744,0 l 0,-0.92148 -2.04241,-2.04241 1.03795,-1.03795 4.02901,4.02902 4.02902,0 0,-0.99331 -2.05357,-2.05357 1.00446,-1.00446 5.99215,5.99215 c 0,0 1.50867,1.57881 1.93171,0 0.42305,-1.57881 1.04936,-7.24215 1.04936,-7.24215 0,0 -0.009,-0.46792 0.65178,-1.12891 0.66099,-0.661 0,-1.23716 0,-1.23716 0,0 -0.65942,-0.68882 -0.65942,-1.58849 0,-0.89966 0,-1.78355 0,-1.78355 l -1.43631,0"
       id="path6399"
       inkscape:connector-curvature="0" />
    <path
       style="fill:none;stroke:#000000;stroke-width:1px;stroke-linecap:butt;stroke-linejoin:miter;stroke-opacity:1"
       d="m 273.19197,775.5095 46.45089,0 0,-3.03571 7.14286,0 c 0,0 2.92887,-0.12193 2.92887,5.07297 0,5.19489 0,10.91307 0,10.91307 l 0.9841,0 0,2.05187 2.96203,0 0,6.04691 169.71092,0 1.13729,0 c 0,0 0.81473,0.0558 1.20536,0.89286 0.39062,0.83705 0.89285,1.11607 1.84152,1.11607 0.94866,0 3.71651,0 3.71651,0 0,0 0.625,0.0335 0.93192,-0.49665 0.30692,-0.53014 1.01005,-0.53572 1.41183,-0.53572 0.40179,0 1.76898,0 1.76898,0 0,0 2.28656,-0.17337 2.28656,3.12541 0,3.29878 0,3.83542 0,3.83542 0,0 0.31946,2.41975 -3.02875,11.10279 -3.34822,8.68303 -4.95536,9.09598 -4.95536,9.09598 0,0 -6.58482,4.81027 -10.66964,4.81027 -4.08482,0 -32.20982,2.03125 -34.41964,2.03125 -2.20983,0 -16.91965,0 -16.91965,0 l 0,0.95982 c 0,0 0.067,0.55804 -0.17857,2.38839 -0.24553,1.83036 -1.00446,3.70536 -2.1875,5.08929 -1.18303,1.38393 -2.20982,2.5 -3.70536,2.5 -1.49553,0 -15.60687,0 -15.60687,0 0,0 0.0316,0.37644 -9.65958,-1.8017 -9.69115,-2.17814 -28.09487,-2.20971 -28.09487,-2.20971 l -305.477963,-1.90377 -59.776785,0 c 0,0 -4.274554,0.13393 -4.274554,-4.27455 0,-4.40849 0,-4.2634 0,-4.2634"
       id="path6401"
       inkscape:connector-curvature="0" />
    <path
       style="fill:none;stroke:#000000;stroke-width:1px;stroke-linecap:butt;stroke-linejoin:miter;stroke-opacity:1"
       d="m 18.74617,812.40953 0,-4.39732"
       id="path6403"
       inkscape:connector-curvature="0" />
    <path
       style="fill:none;stroke:#000000;stroke-width:1.00395465px;stroke-linecap:butt;stroke-linejoin:miter;stroke-opacity:1"
       d="m 17.216082,808.44981 2.036316,0"
       id="path6407"
       inkscape:connector-curvature="0" />
    <path
       style="fill:none;stroke:#000000;stroke-width:1px;stroke-linecap:butt;stroke-linejoin:miter;stroke-opacity:1"
       d="m 35.450041,820.46904 -1.420527,0"
       id="path6572"
       inkscape:connector-curvature="0" />
    <path
       style="fill:none;stroke:#000000;stroke-width:1px;stroke-linecap:butt;stroke-linejoin:miter;stroke-opacity:1"
       d="m 35.535714,822.51843 -1.584821,0"
       id="path6574"
       inkscape:connector-curvature="0" />
  </g>
  <g
     inkscape:groupmode="layer"
     id="layer4"
     inkscape:label="Superstructure"
     style="display:inline">
    <path
       style="fill:none;stroke:#000000;stroke-width:1.00465918px;stroke-linecap:butt;stroke-linejoin:miter;stroke-opacity:1"
       d="m 91.51212,790.50097 64.15952,0.0446 0,5.40917"
       id="path6410"
       inkscape:connector-curvature="0"
       sodipodi:nodetypes="ccc" />
    <path
       style="fill:none;stroke:#000000;stroke-width:1px;stroke-linecap:butt;stroke-linejoin:miter;stroke-opacity:1"
       d="m 93.705358,790.52066 0,6.03795"
       id="path6414"
       inkscape:connector-curvature="0" />
    <path
       style="fill:none;stroke:#000000;stroke-width:1px;stroke-linecap:butt;stroke-linejoin:miter;stroke-opacity:1"
       d="m 118.66136,796.57262 5.76102,-5.76103"
       id="path6420"
       inkscape:connector-curvature="0" />
    <path
       style="fill:none;stroke:#000000;stroke-width:1px;stroke-linecap:butt;stroke-linejoin:miter;stroke-opacity:1"
       d="m 124.73214,796.52513 0,-5.78125"
       id="path6422"
       inkscape:connector-curvature="0" />
    <path
       style="fill:none;stroke:#000000;stroke-width:1px;stroke-linecap:butt;stroke-linejoin:miter;stroke-opacity:1"
       d="m 149.59854,796.3703 5.76102,-5.76103"
       id="path6420-7"
       inkscape:connector-curvature="0" />
    <path
       style="fill:none;stroke:#000000;stroke-width:1px;stroke-linecap:butt;stroke-linejoin:miter;stroke-opacity:1"
       d="m 155.66932,796.32281 0,-5.78125"
       id="path6422-4"
       inkscape:connector-curvature="0" />
    <path
       style="fill:none;stroke:#000000;stroke-width:1px;stroke-linecap:butt;stroke-linejoin:miter;stroke-opacity:1;display:inline"
       d="m 91.558194,790.47147 -34.45567,6.01357"
       id="path6416"
       inkscape:connector-curvature="0"
       sodipodi:nodetypes="cc" />
    <path
       style="fill:none;stroke:#000000;stroke-width:1px;stroke-linecap:butt;stroke-linejoin:miter;stroke-opacity:1"
       d="m 87.591282,796.35954 5.76102,-5.76103"
       id="path6420-0"
       inkscape:connector-curvature="0" />
    <path
       style="fill:none;stroke:#000000;stroke-width:1px;stroke-linecap:butt;stroke-linejoin:miter;stroke-opacity:1"
       d="m 81.183036,795.48718 1.941964,0"
       id="path6481"
       inkscape:connector-curvature="0" />
    <path
       style="fill:none;stroke:#000000;stroke-width:1px;stroke-linecap:butt;stroke-linejoin:miter;stroke-opacity:1"
       d="m 319.71328,772.54993 -43.49969,0"
       id="path6483"
       inkscape:connector-curvature="0" />
    <path
       style="fill:none;stroke:#000000;stroke-width:1px;stroke-linecap:butt;stroke-linejoin:miter;stroke-opacity:1"
       d="m 319.20821,770.49805 -43.97321,0"
       id="path6485"
       inkscape:connector-curvature="0" />
    <path
       style="fill:none;stroke:#000000;stroke-width:1px;stroke-linecap:butt;stroke-linejoin:miter;stroke-opacity:1"
       d="m 309.80116,775.83292 0,-5.77681"
       id="path6487"
       inkscape:connector-curvature="0" />
    <path
       style="fill:none;stroke:#000000;stroke-width:1px;stroke-linecap:butt;stroke-linejoin:miter;stroke-opacity:1"
       d="m 319.61858,771.00313 0,4.95606"
       id="path6489"
       inkscape:connector-curvature="0" />
    <path
       style="fill:none;stroke:#000000;stroke-width:1px;stroke-linecap:butt;stroke-linejoin:miter;stroke-opacity:1"
       d="m 316.67411,769.97379 0,5.98214"
       id="path6491"
       inkscape:connector-curvature="0" />
    <path
       style="fill:none;stroke:#000000;stroke-width:1px;stroke-linecap:butt;stroke-linejoin:miter;stroke-opacity:1"
       d="m 299.73214,769.99611 0,5.98214"
       id="path6493"
       inkscape:connector-curvature="0" />
    <path
       style="fill:none;stroke:#000000;stroke-width:1px;stroke-linecap:butt;stroke-linejoin:miter;stroke-opacity:1"
       d="m 290.66964,769.97379 0,5.98214"
       id="path6495"
       inkscape:connector-curvature="0" />
    <path
       style="fill:none;stroke:#000000;stroke-width:1px;stroke-linecap:butt;stroke-linejoin:miter;stroke-opacity:1"
       d="m 283.63839,769.97379 0,5.89286"
       id="path6497"
       inkscape:connector-curvature="0" />
    <path
       style="fill:none;stroke:#000000;stroke-width:1px;stroke-linecap:butt;stroke-linejoin:miter;stroke-opacity:1"
       d="m 284.66518,775.95593 0,-3.34821 0.98214,0 0,-8.08036 1.02679,0 0,-17.00893 1.02678,0 0,17.05357 1.02679,0 0,6.07143"
       id="path6499"
       inkscape:connector-curvature="0" />
    <path
       style="fill:none;stroke:#000000;stroke-width:1px;stroke-linecap:butt;stroke-linejoin:miter;stroke-opacity:1"
       d="m 297.63198,770.54541 0,-3.07781 1.10485,0 0,-2.03609 0,2.05187 1.02594,0 0,2.98311"
       id="path6501"
       inkscape:connector-curvature="0" />
    <path
       style="fill:none;stroke:#000000;stroke-width:1px;stroke-linecap:butt;stroke-linejoin:miter;stroke-opacity:1"
       d="m 303.75,770.53182 0,-18.02711 -1.08304,0 0,-1.9256 1.09696,-1.09696 0,-2.991 1.91771,0 0,2.95154 1.00226,1.00226 0,2.01241 -0.98647,0 0,18.07226"
       id="path6503"
       inkscape:connector-curvature="0" />
    <path
       style="fill:none;stroke:#000000;stroke-width:1px;stroke-linecap:butt;stroke-linejoin:miter;stroke-opacity:1"
       d="m 303.67711,748.43253 2.08344,0"
       id="path6505"
       inkscape:connector-curvature="0" />
    <path
       style="fill:none;stroke:#000000;stroke-width:1px;stroke-linecap:butt;stroke-linejoin:miter;stroke-opacity:1"
       d="m 309.66518,769.99611 0,-8.45982 1.98661,0 0,8.48214"
       id="path6507"
       inkscape:connector-curvature="0" />
    <path
       style="fill:none;stroke:#000000;stroke-width:1px;stroke-linecap:butt;stroke-linejoin:miter;stroke-opacity:1"
       d="m 310.71429,761.08986 0,-11.09375"
       id="path6509"
       inkscape:connector-curvature="0" />
    <path
       style="fill:none;stroke:#000000;stroke-width:1px;stroke-linecap:butt;stroke-linejoin:miter;stroke-opacity:1"
       d="m 280.66457,770.00876 0,-3.50396 -1.97295,-1.97296 -2.07555,2.07555 0,3.39348"
       id="path6511"
       inkscape:connector-curvature="0"
       sodipodi:nodetypes="ccccc" />
    <path
       style="fill:none;stroke:#000000;stroke-width:1px;stroke-linecap:butt;stroke-linejoin:miter;stroke-opacity:1"
       d="m 278.72319,770.03244 0,-5.20071"
       id="path6513"
       inkscape:connector-curvature="0"
       sodipodi:nodetypes="cc" />
    <path
       style="fill:none;stroke:#000000;stroke-width:1px;stroke-linecap:butt;stroke-linejoin:miter;stroke-opacity:1"
       d="m 276.70568,769.99229 0,5.0275"
       id="path6515"
       inkscape:connector-curvature="0"
       sodipodi:nodetypes="cc" />
    <path
       style="fill:none;stroke:#000000;stroke-width:1px;stroke-linecap:butt;stroke-linejoin:miter;stroke-opacity:1"
       d="m 275.70553,770.7901 0,4.57669"
       id="path6519"
       inkscape:connector-curvature="0"
       sodipodi:nodetypes="cc" />
    <path
       style="fill:none;stroke:#000000;stroke-width:1px;stroke-linecap:butt;stroke-linejoin:miter;stroke-opacity:1"
       d="m 278.70536,770.4537 0,4.60036"
       id="path6521"
       inkscape:connector-curvature="0"
       sodipodi:nodetypes="cc" />
    <path
       style="fill:none;stroke:#000000;stroke-width:1px;stroke-linecap:butt;stroke-linejoin:miter;stroke-opacity:1"
       d="m 334.13952,796.17803 3.30619,-5.72649 132.3534,0.0356 34.84375,5.9375"
       id="path6534"
       inkscape:connector-curvature="0" />
    <path
       style="fill:none;stroke:#000000;stroke-width:1px;stroke-linecap:butt;stroke-linejoin:miter;stroke-opacity:1"
       d="m 465.71429,796.53629 0,-6.16072"
       id="path6538"
       inkscape:connector-curvature="0" />
    <path
       style="fill:none;stroke:#000000;stroke-width:1px;stroke-linecap:butt;stroke-linejoin:miter;stroke-opacity:1"
       d="m 470.44643,796.80415 c -0.0223,-0.0893 -4.10714,-6.31697 -4.10714,-6.31697"
       id="path6540"
       inkscape:connector-curvature="0" />
    <path
       style="fill:none;stroke:#000000;stroke-width:1px;stroke-linecap:butt;stroke-linejoin:miter;stroke-opacity:1"
       d="m 484.19453,795.56246 3.03045,0"
       id="path6544"
       inkscape:connector-curvature="0" />
    <path
       style="fill:none;stroke:#000000;stroke-width:1px;stroke-linecap:butt;stroke-linejoin:miter;stroke-opacity:1"
       d="m 413.67188,796.01174 0,-5.05581"
       id="path6546"
       inkscape:connector-curvature="0" />
    <path
       style="fill:none;stroke:#000000;stroke-width:1px;stroke-linecap:butt;stroke-linejoin:miter;stroke-opacity:1"
       d="m 337.58929,790.48718 0,6.09375"
       id="path6554"
       inkscape:connector-curvature="0" />
    <path
       style="fill:none;stroke:#000000;stroke-width:1px;stroke-linecap:butt;stroke-linejoin:miter;stroke-opacity:1"
       d="m 259.64077,786.36061 1.11275,1.11274"
       id="path6566"
       inkscape:connector-curvature="0" />
    <path
       style="fill:none;stroke:#000000;stroke-width:1px;stroke-linecap:butt;stroke-linejoin:miter;stroke-opacity:1"
       d="m 266.7592,785.53197 1.57046,4.15109"
       id="path6568"
       inkscape:connector-curvature="0"
       sodipodi:nodetypes="cc" />
    <path
       style="fill:none;stroke:#000000;stroke-width:1px;stroke-linecap:butt;stroke-linejoin:miter;stroke-opacity:1"
       d="m 269.54793,786.29706 1.29725,3.11057"
       id="path6570"
       inkscape:connector-curvature="0"
       sodipodi:nodetypes="cc" />
    <rect
       style="fill:#800000;stroke:#000000;stroke-width:0.81445621999999995"
       id="rect6855"
       width="2.1900651"
       height="1.2114799"
       x="292.60681"
       y="768.38501"
       rx="1.6332173"
       ry="0" />
    <path
       style="color:#000000;fill:none;stroke:#000000;stroke-width:1px;stroke-linecap:butt;stroke-linejoin:miter;stroke-miterlimit:4;stroke-opacity:1;stroke-dasharray:none;stroke-dashoffset:0;marker:none;visibility:visible;display:inline;overflow:visible;enable-background:accumulate"
       d="m 293.71257,767.9971 0.004,-1.49361 -2.10938,-0.0276 0,-2.9753 4.14063,0 -0.008,2.99243 -2.01874,0.0197"
       id="path6857"
       inkscape:connector-curvature="0"
       sodipodi:nodetypes="ccccccc" />
  </g>
  <g
     inkscape:groupmode="layer"
     id="layer5"
     inkscape:label="Details"
     style="display:inline">
    <rect
       style="fill:none;stroke:#000000"
       id="rect6583"
       width="14.031651"
       height="3.9774756"
       x="19.682192"
       y="803.50165"
       ry="1.9887378" />
    <path
       sodipodi:type="arc"
       style="fill:none;stroke:#000000"
       id="path6585"
       sodipodi:cx="77.87645"
       sodipodi:cy="820.56372"
       sodipodi:rx="27.873898"
       sodipodi:ry="3.1251595"
       d="m 105.75035,820.56372 a 27.873898,3.1251595 0 1 1 -55.747798,0 27.873898,3.1251595 0 1 1 55.747798,0 z"
       transform="translate(-1.0417198,-0.0947018)" />
    <path
       style="fill:none;stroke:#000000;stroke-width:1px;stroke-linecap:butt;stroke-linejoin:miter;stroke-opacity:1;display:inline"
       d="m 48.135265,813.64223 c 0,0 -0.949919,-0.93882 -0.855217,6.86575 0.10427,8.59312 1.076188,6.721 1.076188,6.721 0,0 1.566219,-1.4136 1.557741,-6.69868 -0.0089,-5.56775 -1.778712,-6.88807 -1.778712,-6.88807 z"
       id="path6607"
       inkscape:connector-curvature="0"
       sodipodi:nodetypes="cscsc" />
    <path
       sodipodi:type="arc"
       style="fill:none;stroke:#000000"
       id="path6633"
       sodipodi:cx="45.804104"
       sodipodi:cy="820.42169"
       sodipodi:rx="1.1995561"
       sodipodi:ry="1.2227466"
       d="m 46.306814,821.53188 a 1.1995561,1.2227466 0 1 1 0.06474,-2.18747"
       transform="matrix(1.3530773,0,0,0.84205077,-15.208557,129.6608)"
       sodipodi:start="1.1383647"
       sodipodi:end="5.2051414"
       sodipodi:open="true" />
    <path
       style="fill:none;stroke:#000000;stroke-width:1px;stroke-linecap:butt;stroke-linejoin:miter;stroke-opacity:1;display:inline"
       d="m 35.669643,819.4604 c 0,0 2.723214,0 4.598214,-0.625 1.875,-0.625 2.723215,-0.40179 2.723215,-0.40179 l 3.839285,1.13839 0,-0.0223"
       id="path6637"
       inkscape:connector-curvature="0" />
    <path
       style="fill:none;stroke:#000000;stroke-width:1px;stroke-linecap:butt;stroke-linejoin:miter;stroke-opacity:1;display:inline"
       d="m 35.583359,821.58622 c 0,0 2.723214,0 4.598214,0.625 1.875,0.625 2.723215,0.40179 2.723215,0.40179 l 3.839285,-1.13839 0,0.0223"
       id="path6637-9"
       inkscape:connector-curvature="0" />
    <path
       style="fill:none;stroke:#000000;stroke-width:1.00317514000000000px;stroke-linecap:butt;stroke-linejoin:miter;stroke-opacity:1"
       d="m 245.68963,801.06936 0,-9.20413 c 0,0 -0.0631,-1.45453 1.44305,-1.45453 1.50615,0 1.15919,0 1.15919,0 0,0 1.40757,-0.0318 1.40757,1.41877 0,1.45056 0,9.2081 0,9.2081"
       id="path6706"
       inkscape:connector-curvature="0" />
    <path
       style="fill:none;stroke:#000000;stroke-width:1px;stroke-linecap:butt;stroke-linejoin:miter;stroke-opacity:1"
       d="m 224.77679,786.46932 -23.39286,0"
       id="path6708"
       inkscape:connector-curvature="0" />
    <path
       style="fill:none;stroke:#000000;stroke-width:1px;stroke-linecap:butt;stroke-linejoin:miter;stroke-opacity:1"
       d="m 267.72199,794.48918 0,-6.15562"
       id="path6710"
       inkscape:connector-curvature="0" />
    <path
       style="fill:none;stroke:#000000;stroke-width:1px;stroke-linecap:butt;stroke-linejoin:miter;stroke-opacity:1"
       d="m 193.66071,802.00504 0,-5.66964"
       id="path6712"
       inkscape:connector-curvature="0" />
    <path
       style="fill:none;stroke:#000000;stroke-width:1.01065849999999990px;stroke-linecap:butt;stroke-linejoin:miter;stroke-opacity:1"
       d="m 193.79997,796.87644 9.40898,2.58979"
       id="path6714"
       inkscape:connector-curvature="0" />
    <path
       style="fill:none;stroke:#000000;stroke-width:1px;stroke-linecap:butt;stroke-linejoin:miter;stroke-opacity:1"
       d="m 245.22322,799.46039 -42.14286,0"
       id="path6716"
       inkscape:connector-curvature="0" />
    <path
       style="color:#000000;fill:none;stroke:#000000;stroke-width:1px;stroke-linecap:butt;stroke-linejoin:miter;stroke-miterlimit:4;stroke-opacity:1;stroke-dasharray:none;stroke-dashoffset:0;marker:none;visibility:visible;display:inline;overflow:visible;enable-background:accumulate"
       d="m 251.65425,801.43398 -34.34518,0"
       id="path6718"
       inkscape:connector-curvature="0" />
    <path
       style="color:#000000;fill:none;stroke:#000000;stroke-width:1px;stroke-linecap:butt;stroke-linejoin:miter;stroke-miterlimit:4;stroke-opacity:1;stroke-dasharray:none;stroke-dashoffset:0;marker:none;visibility:visible;display:inline;overflow:visible;enable-background:accumulate"
       d="m 237.76466,799.63464 0,1.57837"
       id="path6720"
       inkscape:connector-curvature="0" />
    <path
       style="color:#000000;fill:none;stroke:#000000;stroke-width:1px;stroke-linecap:butt;stroke-linejoin:miter;stroke-miterlimit:4;stroke-opacity:1;stroke-dasharray:none;stroke-dashoffset:0;marker:none;visibility:visible;display:inline;overflow:visible;enable-background:accumulate"
       d="m 234.79733,799.50837 0,2.05188"
       id="path6722"
       inkscape:connector-curvature="0" />
    <path
       style="color:#000000;fill:none;stroke:#000000;stroke-width:1px;stroke-linecap:butt;stroke-linejoin:miter;stroke-miterlimit:4;stroke-opacity:1;stroke-dasharray:none;stroke-dashoffset:0;marker:none;visibility:visible;display:inline;overflow:visible;enable-background:accumulate"
       d="m 221.66535,799.60307 0,1.57837"
       id="path6724"
       inkscape:connector-curvature="0" />
    <path
       style="color:#000000;fill:none;stroke:#000000;stroke-width:1px;stroke-linecap:butt;stroke-linejoin:miter;stroke-miterlimit:4;stroke-opacity:1;stroke-dasharray:none;stroke-dashoffset:0;marker:none;visibility:visible;display:inline;overflow:visible;enable-background:accumulate"
       d="m 218.79273,799.47681 0,1.9256"
       id="path6726"
       inkscape:connector-curvature="0" />
    <path
       style="color:#000000;fill:none;stroke:#000000;stroke-width:1px;stroke-linecap:butt;stroke-linejoin:miter;stroke-miterlimit:4;stroke-opacity:1;stroke-dasharray:none;stroke-dashoffset:0;marker:none;visibility:visible;display:inline;overflow:visible;enable-background:accumulate"
       d="m 226.71611,799.47681 0,2.0203"
       id="path6728"
       inkscape:connector-curvature="0" />
    <path
       style="color:#000000;fill:none;stroke:#000000;stroke-width:1px;stroke-linecap:butt;stroke-linejoin:miter;stroke-miterlimit:4;stroke-opacity:1;stroke-dasharray:none;stroke-dashoffset:0;marker:none;visibility:visible;display:inline;overflow:visible;enable-background:accumulate"
       d="m 228.73642,799.31897 0,2.14657"
       id="path6730"
       inkscape:connector-curvature="0" />
    <path
       style="color:#000000;fill:none;stroke:#000000;stroke-width:1px;stroke-linecap:butt;stroke-linejoin:miter;stroke-miterlimit:4;stroke-opacity:1;stroke-dasharray:none;stroke-dashoffset:0;marker:none;visibility:visible;display:inline;overflow:visible;enable-background:accumulate"
       d="m 200.70468,796.50948 3.69586,2.13381"
       id="path6732"
       inkscape:connector-curvature="0" />
    <path
       style="color:#000000;fill:none;stroke:#000000;stroke-width:1px;stroke-linecap:butt;stroke-linejoin:miter;stroke-miterlimit:4;stroke-opacity:1;stroke-dasharray:none;stroke-dashoffset:0;marker:none;visibility:visible;display:inline;overflow:visible;enable-background:accumulate"
       d="m 212.66868,802.00219 0,-3.53553 -8.42846,0"
       id="path6734"
       inkscape:connector-curvature="0" />
    <path
       style="color:#000000;fill:none;stroke:#000000;stroke-width:1px;stroke-linecap:butt;stroke-linejoin:miter;stroke-miterlimit:4;stroke-opacity:1;stroke-dasharray:none;stroke-dashoffset:0;marker:none;visibility:visible;display:inline;overflow:visible;enable-background:accumulate"
       d="m 251.20536,801.78182 3.03571,-7.27678 16.36161,0 0.0949,0 2.02846,-2.02846 0,-3.19476"
       id="path6736"
       inkscape:connector-curvature="0"
       sodipodi:nodetypes="cccccc" />
    <path
       style="color:#000000;fill:none;stroke:#000000;stroke-width:1px;stroke-linecap:butt;stroke-linejoin:miter;stroke-miterlimit:4;stroke-opacity:1;stroke-dasharray:none;stroke-dashoffset:0;marker:none;visibility:visible;display:inline;overflow:visible;enable-background:accumulate"
       d="m 252.5697,798.514 -2.57273,0"
       id="path6738"
       inkscape:connector-curvature="0" />
    <path
       style="color:#000000;fill:none;stroke:#000000;stroke-width:1px;stroke-linecap:butt;stroke-linejoin:miter;stroke-miterlimit:4;stroke-opacity:1;stroke-dasharray:none;stroke-dashoffset:0;marker:none;visibility:visible;display:inline;overflow:visible;enable-background:accumulate"
       d="m 329.21875,788.47825 -55.2009,0"
       id="path6761"
       inkscape:connector-curvature="0"
       sodipodi:nodetypes="cc" />
    <path
       style="color:#000000;fill:none;stroke:#000000;stroke-width:1px;stroke-linecap:butt;stroke-linejoin:miter;stroke-miterlimit:4;stroke-opacity:1;stroke-dasharray:none;stroke-dashoffset:0;marker:none;visibility:visible;display:inline;overflow:visible;enable-background:accumulate"
       d="m 273.25893,790.49592 56.96625,0 -57.1225,0"
       id="path6763"
       inkscape:connector-curvature="0"
       sodipodi:nodetypes="ccc" />
    <path
       style="color:#000000;fill:none;stroke:#000000;stroke-width:1px;stroke-linecap:butt;stroke-linejoin:miter;stroke-miterlimit:4;stroke-opacity:1;stroke-dasharray:none;stroke-dashoffset:0;marker:none;visibility:visible;display:inline;overflow:visible;enable-background:accumulate"
       d="m 333.25564,796.57262 -3.85121,0 c 0,0 -2.27284,-0.28411 -9.18607,2.39911 -6.91323,2.68322 -27.9686,2.62008 -27.9686,2.62008"
       id="path6782"
       inkscape:connector-curvature="0" />
    <path
       style="color:#000000;fill:none;stroke:#000000;stroke-width:1px;stroke-linecap:butt;stroke-linejoin:miter;stroke-miterlimit:4;stroke-opacity:1;stroke-dasharray:none;stroke-dashoffset:0;marker:none;visibility:visible;display:inline;overflow:visible;enable-background:accumulate"
       d="m 431.77708,800.36069 c 0,0 0.1894,-1.79934 1.98874,-1.79934 1.79933,0 19.54014,0 19.54014,0 0,0 1.42052,-0.12626 1.42052,0.91546 0,1.04172 -1.4442,0.98647 -1.4442,0.98647 l -21.5052,0.0158 z"
       id="path6784"
       inkscape:connector-curvature="0" />
    <path
       style="color:#000000;fill:none;stroke:#000000;stroke-width:1px;stroke-linecap:butt;stroke-linejoin:miter;stroke-miterlimit:4;stroke-opacity:1;stroke-dasharray:none;stroke-dashoffset:0;marker:none;visibility:visible;display:inline;overflow:visible;enable-background:accumulate"
       d="m 493.74363,804.51179 0,5.98199 16.69908,0 c 0,0 4.28943,-0.29678 4.28943,-2.97535 0,-2.67857 -4.02234,-3.06728 -4.02234,-3.06728 l -16.96498,0.0316 z"
       id="path6786"
       inkscape:connector-curvature="0"
       sodipodi:nodetypes="cccsccc" />
    <path
       style="color:#000000;fill:none;stroke:#000000;stroke-width:1px;stroke-linecap:butt;stroke-linejoin:miter;stroke-miterlimit:4;stroke-opacity:1;stroke-dasharray:none;stroke-dashoffset:0;marker:none;visibility:visible;display:inline;overflow:visible;enable-background:accumulate"
       d="m 491.71951,812.55189 0,5.98199 16.69908,0 c 0,0 4.28943,-0.29678 4.28943,-2.97535 0,-2.67857 -4.02234,-3.06728 -4.02234,-3.06728 l -16.96498,0.0316 z"
       id="path6786-4"
       inkscape:connector-curvature="0"
       sodipodi:nodetypes="cccsccc" />
    <path
       style="color:#000000;fill:none;stroke:#000000;stroke-width:1px;stroke-linecap:butt;stroke-linejoin:miter;stroke-miterlimit:4;stroke-opacity:1;stroke-dasharray:none;stroke-dashoffset:0;marker:none;visibility:visible;display:inline;overflow:visible;enable-background:accumulate"
       d="m 503.71652,804.50504 -2.96875,2.96875 2.96875,2.96875"
       id="path6808"
       inkscape:connector-curvature="0" />
    <path
       style="color:#000000;fill:none;stroke:#000000;stroke-width:1px;stroke-linecap:butt;stroke-linejoin:miter;stroke-miterlimit:4;stroke-opacity:1;stroke-dasharray:none;stroke-dashoffset:0;marker:none;visibility:visible;display:inline;overflow:visible;enable-background:accumulate"
       d="m 501.65179,812.49611 -3.00223,3.00223 3.09151,3.09152"
       id="path6806"
       inkscape:connector-curvature="0" />
    <path
       style="color:#000000;fill:none;stroke:#000000;stroke-width:1px;stroke-linecap:butt;stroke-linejoin:miter;stroke-miterlimit:4;stroke-opacity:1;stroke-dasharray:none;stroke-dashoffset:0;marker:none;visibility:visible;display:inline;overflow:visible;enable-background:accumulate"
       d="m 483.67367,801.48133 8.0023,0 0,5.88729 c 0,0 0.2841,2.28863 -2.28863,2.28863 -2.57273,0 -3.23564,0 -3.23564,0 0,0 -2.45436,-0.17362 -2.45436,-2.45436 0,-2.28073 -0.0237,-5.72156 -0.0237,-5.72156 z"
       id="path6831"
       inkscape:connector-curvature="0" />
    <path
       style="color:#000000;fill:none;stroke:#000000;stroke-width:1px;stroke-linecap:butt;stroke-linejoin:miter;stroke-miterlimit:4;stroke-opacity:1;stroke-dasharray:none;stroke-dashoffset:0;marker:none;visibility:visible;display:inline;overflow:visible;enable-background:accumulate"
       d="m 489.73458,804.00671 0,3.4724 -4.02483,-0.0158 -0.0473,-3.45661"
       id="path6833"
       inkscape:connector-curvature="0"
       sodipodi:nodetypes="cccc" />
    <path
       style="color:#000000;fill:none;stroke:#000000;stroke-width:1px;stroke-linecap:butt;stroke-linejoin:miter;stroke-miterlimit:4;stroke-opacity:1;stroke-dasharray:none;stroke-dashoffset:0;marker:none;visibility:visible;display:inline;overflow:visible;enable-background:accumulate"
       d="m 486.71991,807.43176 0,1.54679"
       id="path6835"
       inkscape:connector-curvature="0"
       sodipodi:nodetypes="cc" />
    <path
       style="color:#000000;fill:none;stroke:#000000;stroke-width:1px;stroke-linecap:butt;stroke-linejoin:miter;stroke-miterlimit:4;stroke-opacity:1;stroke-dasharray:none;stroke-dashoffset:0;marker:none;visibility:visible;display:inline;overflow:visible;enable-background:accumulate"
       d="m 488.69286,807.40019 0,1.59414"
       id="path6837"
       inkscape:connector-curvature="0"
       sodipodi:nodetypes="cc" />
    <path
       style="color:#000000;fill:none;stroke:#000000;stroke-width:1px;stroke-linecap:butt;stroke-linejoin:miter;stroke-miterlimit:4;stroke-opacity:1;stroke-dasharray:none;stroke-dashoffset:0;marker:none;visibility:visible;display:inline;overflow:visible;enable-background:accumulate"
       d="m 487.71428,801.92327 0,4.59304 1.49944,0 -3.01467,0"
       id="path6839"
       inkscape:connector-curvature="0"
       sodipodi:nodetypes="cccc" />
    <path
       style="color:#000000;fill:none;stroke:#000000;stroke-width:1px;stroke-linecap:butt;stroke-linejoin:miter;stroke-miterlimit:4;stroke-opacity:1;stroke-dasharray:none;stroke-dashoffset:0;marker:none;visibility:visible;display:inline;overflow:visible;enable-background:accumulate"
       d="m 417.1875,832.45147 30.17857,0 -31.20535,0 -3.593,2.07442 0,2.92558 -13.75075,0 -1.17188,1.17187"
       id="path6841"
       inkscape:connector-curvature="0" />
    <path
       style="color:#000000;fill:none;stroke:#000000;stroke-width:1px;stroke-linecap:butt;stroke-linejoin:miter;stroke-miterlimit:4;stroke-opacity:1;stroke-dasharray:none;stroke-dashoffset:0;marker:none;visibility:visible;display:inline;overflow:visible;enable-background:accumulate"
       d="m 76.708459,817.50172 0,5.90307"
       id="path6859"
       inkscape:connector-curvature="0" />
    <path
       style="color:#000000;fill:none;stroke:#000000;stroke-width:1px;stroke-linecap:butt;stroke-linejoin:miter;stroke-miterlimit:4;stroke-opacity:1;stroke-dasharray:none;stroke-dashoffset:0;marker:none;visibility:visible;display:inline;overflow:visible;enable-background:accumulate"
       d="m 19.196429,808.47825 464.666641,0"
       id="path6861"
       inkscape:connector-curvature="0" />
    <path
       style="color:#000000;fill:none;stroke:#000000;stroke-width:1px;stroke-linecap:butt;stroke-linejoin:miter;stroke-miterlimit:4;stroke-opacity:1;stroke-dasharray:none;stroke-dashoffset:0;marker:none;visibility:visible;display:inline;overflow:visible;enable-background:accumulate"
       d="m 491.50235,808.47348 2.24128,0"
       id="path6863"
       inkscape:connector-curvature="0" />
    <path
       style="color:#000000;fill:none;stroke:#000000;stroke-width:1px;stroke-linecap:butt;stroke-linejoin:miter;stroke-miterlimit:4;stroke-opacity:1;stroke-dasharray:none;stroke-dashoffset:0;marker:none;visibility:visible;display:inline;overflow:visible;enable-background:accumulate"
       d="m 514.54645,808.50504 2.05188,0"
       id="path6865"
       inkscape:connector-curvature="0" />
    <path
       style="color:#000000;fill:none;stroke:#000000;stroke-width:1px;stroke-linecap:butt;stroke-linejoin:miter;stroke-miterlimit:4;stroke-opacity:1;stroke-dasharray:none;stroke-dashoffset:0;marker:none;visibility:visible;display:inline;overflow:visible;enable-background:accumulate"
       d="m 324.66934,837.54693 0,-35.07123"
       id="path6867"
       inkscape:connector-curvature="0" />
    <path
       style="color:#000000;fill:none;stroke:#000000;stroke-width:1px;stroke-linecap:butt;stroke-linejoin:miter;stroke-miterlimit:4;stroke-opacity:1;stroke-dasharray:none;stroke-dashoffset:0;marker:none;visibility:visible;display:inline;overflow:visible;enable-background:accumulate"
       d="m 79.285715,806.51397 1.785714,0 c 0,0 14.375,-0.58036 23.169641,-2.5 8.79464,-1.91965 17.5,-1.5625 17.5,-1.5625 l 203.08036,0 83.97321,1.07143 0,5"
       id="path6871"
       inkscape:connector-curvature="0" />
    <path
       style="color:#000000;fill:none;stroke:#000000;stroke-width:1px;stroke-linecap:butt;stroke-linejoin:miter;stroke-miterlimit:4;stroke-opacity:1;stroke-dasharray:none;stroke-dashoffset:0;marker:none;visibility:visible;display:inline;overflow:visible;enable-background:accumulate"
       d="m 78.223688,812.41939 c 0,0 17.298862,0.53664 27.305682,4.07217 10.00683,3.53554 19.55992,3.72776 78.93492,7.03134 59.375,3.30357 89.19235,3.95407 89.19235,3.95407 l 50.98622,-0.0255 c 0,0 35.53571,0.0893 48.125,-2.76786 12.58928,-2.85714 15.40178,-4.59821 15.40178,-4.59821"
       id="path6873"
       inkscape:connector-curvature="0" />
    <path
       style="color:#000000;fill:none;stroke:#000000;stroke-width:1px;stroke-linecap:butt;stroke-linejoin:miter;stroke-miterlimit:4;stroke-opacity:1;stroke-dasharray:none;stroke-dashoffset:0;marker:none;visibility:visible;display:inline;overflow:visible;enable-background:accumulate"
       d="m 264.69153,794.01567 0,-7.29204"
       id="path6875"
       inkscape:connector-curvature="0" />
    <path
       style="color:#000000;fill:none;stroke:#000000;stroke-width:1px;stroke-linecap:butt;stroke-linejoin:miter;stroke-miterlimit:4;stroke-opacity:1;stroke-dasharray:none;stroke-dashoffset:0;marker:none;visibility:visible;display:inline;overflow:visible;enable-background:accumulate"
       d="m 202.67764,797.59855 0,-10.92227"
       id="path6879"
       inkscape:connector-curvature="0" />
    <path
       style="color:#000000;fill:none;stroke:#000000;stroke-width:1px;stroke-linecap:butt;stroke-linejoin:miter;stroke-miterlimit:4;stroke-opacity:1;stroke-dasharray:none;stroke-dashoffset:0;marker:none;visibility:visible;display:inline;overflow:visible;enable-background:accumulate"
       d="m 312.23214,780.46486 18.99554,0"
       id="path6881"
       inkscape:connector-curvature="0"
       sodipodi:nodetypes="cc" />
    <path
       style="color:#000000;fill:none;stroke:#000000;stroke-width:1px;stroke-linecap:butt;stroke-linejoin:miter;stroke-miterlimit:4;stroke-opacity:1;stroke-dasharray:none;stroke-dashoffset:0;marker:none;visibility:visible;display:inline;overflow:visible;enable-background:accumulate"
       d="m 448.66557,796.41478 0,5.52427"
       id="path7242"
       inkscape:connector-curvature="0" />
    <path
       style="color:#000000;fill:none;stroke:#000000;stroke-width:1.02725004999999990px;stroke-linecap:butt;stroke-linejoin:miter;stroke-miterlimit:4;stroke-opacity:1;stroke-dasharray:none;stroke-dashoffset:0;marker:none;visibility:visible;display:inline;overflow:visible;enable-background:accumulate"
       d="m 405.20089,795.54828 -3.98437,0"
       id="path7246"
       inkscape:connector-curvature="0" />
    <path
       style="color:#000000;fill:none;stroke:#000000;stroke-width:1px;stroke-linecap:butt;stroke-linejoin:miter;stroke-miterlimit:4;stroke-opacity:1;stroke-dasharray:none;stroke-dashoffset:0;marker:none;visibility:visible;display:inline;overflow:visible;enable-background:accumulate"
       d="m 306.676,827.00346 0,-3.74072"
       id="path7268"
       inkscape:connector-curvature="0" />
  </g>
</svg>
