<?xml version="1.0" encoding="utf-8"?>
<!-- Generator: Adobe Illustrator 15.1.0, SVG Export Plug-In . SVG Version: 6.00 Build 0)  -->
<!DOCTYPE svg PUBLIC "-//W3C//DTD SVG 1.1//EN" "http://www.w3.org/Graphics/SVG/1.1/DTD/svg11.dtd">
<svg version="1.1"
	 id="svg2" sodipodi:docname="sov_attack_submarine_hull_1_GENERAL.svg" inkscape:version="0.48.4 r9939" xmlns:dc="http://purl.org/dc/elements/1.1/" xmlns:cc="http://creativecommons.org/ns#" xmlns:rdf="http://www.w3.org/1999/02/22-rdf-syntax-ns#" xmlns:svg="http://www.w3.org/2000/svg" xmlns:sodipodi="http://sodipodi.sourceforge.net/DTD/sodipodi-0.dtd" xmlns:inkscape="http://www.inkscape.org/namespaces/inkscape"
	 xmlns="http://www.w3.org/2000/svg" xmlns:xlink="http://www.w3.org/1999/xlink" x="0px" y="0px" width="800px"
	 height="1052.363px" viewBox="0 0 800 1052.363" enable-background="new 0 0 800 1052.363" xml:space="preserve">
<sodipodi:namedview  inkscape:window-y="-8" inkscape:window-x="-8" inkscape:window-height="1388" inkscape:window-width="2560" inkscape:current-layer="layer1" inkscape:document-units="px" inkscape:pageshadow="2" inkscape:pageopacity="0.0" id="base" showgrid="false" inkscape:cy="517.79705" inkscape:cx="771.49366" inkscape:zoom="1.1994848" borderopacity="1.0" bordercolor="#666666" pagecolor="#ffffff" inkscape:window-maximized="1">
	</sodipodi:namedview>
<g id="layer1" inkscape:label="Layer 1" inkscape:groupmode="layer">
	<path id="path3236_3_" inkscape:connector-curvature="0" fill="none" stroke="#000000" d="M395.398,532.55l6.497-8.308"/>
	<path id="path3236_4_" inkscape:connector-curvature="0" fill="none" stroke="#000000" d="M16.584,551.105"/>
	<path id="path3236_1_" inkscape:connector-curvature="0" fill="none" stroke="#000000" d="M17.469,594.582h4v1h-2.031v1.063
		l2.969,1.906l13.808,1.58c-0.625,0,161.769,3.977,161.769,3.977l530.077-0.127l20.743,3.07l17.277,0.045l10.535-2.1l1.831-0.938
		l4.509-5.445v-9.777l-1.25-2.232l-8.616-7.365l-0.089-3.84l0.803-1.295l7.054-25.76l1.116-1.65l0.045-4.867l1.116-2.188
		l0.089-4.553l-2.143-2.01l-5.224-2.143l-2.276-0.045l-0.446-9.241l-1.696-0.804l-0.09-5.178H770.5l-0.09-1.206h-2.991l-1.919,6.34
		l-3.795-0.224l-3.08,1.384l-0.135,1.563l-1.071,1.965l-0.044,3.125l-29.82-0.016l-0.189-1.135h-4.924l0.126,1.135h-15.089
		l-1.074-1.768l-2.02-0.063l0.063,1.83h-2.02v-1.925h-6.062v1.974h-1.988v-2.005h-2.904v-1.025h-1.058v-0.979h-0.994v1.025h-0.995
		v4.021l-77.166,0.936v-1.01h-0.82v-0.996h-1.011v1.027h-1.025v0.994l-52.954,2.004l-0.063-1.01h-3.03v1.01H494.4v-11.08v-0.6
		l3.599-3.599h2.462l0.868-0.868v-17.82l-0.955-0.955h-0.923v-4.127h-0.96v-1.005h-4.063v1.071h1.005v1.072h-1.005v1.964h-1.986
		l0.032,0.021l-2.21-0.146l0.111,0.015h-9.906l0.063,0.063l-2.125,0.469h-29.875l0.032,0.038h-27.047l-4.021-0.53l3.005-2.508
		l-0.044,2.464h-3.138l-7.248-0.973h-11.623l-7.071,0.885v1.148l12.949,2.961v2.121h2.077v1.062l-3.094,0.928l0.574,0.928
		l-2.209,17.811l-0.531,3.977l-2.695,3.314h-1.017c0,0,0.047-1.457,0-1.281s-0.973,0.133-0.973,0.133v-3.049h-0.928v6.073H222.688
		l-74.125,2.063v-1.086h-3.115v0.994l-4.885-0.033l-3.188-1.969l-0.906,0.063l-2.563,2.031h-2.344l-0.938,0.938h-5.219v-2.031h1.094
		v-0.969h-4.125v3l-1.063-3.031h-3.906v1.031h1v1.969h-5.031v-0.969h-4.906l-2.094,2.094H90.438l-3.969,0.906h-11l-3.031,0.938
		h-7.031v-0.938h-2.031v-1h-2.938v3l-27.969,3.031l-10,3.594l-2,0.719l-3,2.688v1h-1.031v9.938h1.031l-0.656-0.406h24.563
		l3.469,3.469v27.969l-3.359,3.359H22.063l0.563,0.047h-1.188l-0.165-0.441l1.281-0.045"/>
</g>
</svg>
