<?xml version="1.0" encoding="UTF-8" standalone="no"?>
<!-- Created with Inkscape (http://www.inkscape.org/) -->

<svg
   xmlns:dc="http://purl.org/dc/elements/1.1/"
   xmlns:cc="http://creativecommons.org/ns#"
   xmlns:rdf="http://www.w3.org/1999/02/22-rdf-syntax-ns#"
   xmlns:svg="http://www.w3.org/2000/svg"
   xmlns="http://www.w3.org/2000/svg"
   xmlns:sodipodi="http://sodipodi.sourceforge.net/DTD/sodipodi-0.dtd"
   xmlns:inkscape="http://www.inkscape.org/namespaces/inkscape"
   width="800"
   height="1052.3622"
   id="svg2"
   version="1.1"
   inkscape:version="0.48.4 r9939"
   sodipodi:docname="sov_attack_submarine_hull_1_GENERAL.svg">
  <defs
     id="defs4" />
  <sodipodi:namedview
     id="base"
     pagecolor="#ffffff"
     bordercolor="#666666"
     borderopacity="1.0"
     inkscape:pageopacity="0.0"
     inkscape:pageshadow="2"
     inkscape:zoom="1.1994848"
     inkscape:cx="771.49366"
     inkscape:cy="517.79705"
     inkscape:document-units="px"
     inkscape:current-layer="layer1"
     showgrid="false"
     inkscape:window-width="2560"
     inkscape:window-height="1388"
     inkscape:window-x="-8"
     inkscape:window-y="-8"
     inkscape:window-maximized="1" />
  <metadata
     id="metadata7">
    <rdf:RDF>
      <cc:Work
         rdf:about="">
        <dc:format>image/svg+xml</dc:format>
        <dc:type
           rdf:resource="http://purl.org/dc/dcmitype/StillImage" />
      </cc:Work>
    </rdf:RDF>
  </metadata>
  <g
     inkscape:label="Layer 1"
     inkscape:groupmode="layer"
     id="layer1">
    <path
       style="fill:none;stroke:#000000;stroke-width:1px;stroke-linecap:butt;stroke-linejoin:miter;stroke-opacity:1"
       d="m 36.214286,600.13004 c -0.625,0 161.768624,3.97695 161.768624,3.97695 l 530.07755,-0.12627 20.74311,3.06896 17.27679,0.0446 10.53571,-2.09821 1.83036,-0.9375 4.50893,-5.44643 0,-9.77678 -1.25,-2.23215 -8.61607,-7.36607 -0.0893,-3.83928 0.80357,-1.29465 7.05358,-25.75893 1.11607,-1.65178 0.0446,-4.86607 1.11607,-2.1875 0.0893,-4.55357 -2.14286,-2.00893 -5.22321,-2.14286 -2.27679,-0.0446 -0.44643,-9.24107 -1.69643,-0.80358 -0.0893,-5.17857 -0.84822,0 -0.0893,-1.20535 -2.99107,0 -1.91965,6.33928 -3.79464,-0.22321 -3.08036,1.38393 -0.13393,1.5625 -1.07142,1.96428 -0.0447,3.125 -29.81962,-0.0141 -0.1894,-1.13642 -4.92449,0 0.12626,1.13642 -15.08915,0 -1.07329,-1.76777 -2.0203,-0.0631 0.0631,1.8309 -2.0203,0 0,-1.92561 -6.06092,0 0,1.97296 -1.98873,0 0,-2.00452 -2.90419,0 0,-1.02594 -1.05751,0 0,-0.97859 -0.99437,0 0,1.02594 -0.99436,0 0,4.02128 -77.16619,0.93478 0,-1.01015 -0.82075,0 0,-0.99437 -1.01015,0 0,1.02594 -1.02594,0 0,0.99436 -52.95409,2.00453 -0.0631,-1.01016 -3.03046,0 0,1.01016 -57.9575,0 0,-11.08011 0,-0.59978 3.59867,-3.59867 2.46224,0 0.8681,-0.8681 0,-17.81972 -0.95491,-0.95491 -0.92276,0 0,-4.12755 -0.95982,0 0,-1.00447 -4.0625,0 0,1.07143 1.00447,0 0,1.07143 -1.00447,0 0,1.96429 -1.9866,0 0,-60.95536 -2.06697,0 0,60.84375 -9.90625,0 0,-6.03125 -1,0 0,-0.90625 -7.0625,0 0,-17.06461 -2.98273,0 0,-9.98789 -0.97227,0 0,-10.00998 -1.98874,0 0,20.01996 -3.99957,0 0,-1.96664 2.98311,0 0,-7.99914 -9.98788,0 0,7.97705 2.9831,0 0,2.03293 -3.97747,0 0,-12.08711 -0.99437,0 0,-5.94411 0.97227,0 0,-2.05503 -0.99437,0 0,-0.95018 -1.03856,0 0,13.03728 -1.06066,0 0,7.99915 -2.85053,0 0,16.93582 -3.02883,0 0,-22.90625 0.96636,0.25894 0,-3.38394 1.06489,0 0,-2 -1.03125,0 0,-2 -1.0625,0 0,-0.9375 -2.03125,0 0,0.96875 -1.9375,0 0,6.09375 0.96875,0 0,9.03125 0,14.96875 -3.96875,0 0,-18.0625 1.15625,0 -0.2959,-1.10432 -0.86035,0 0,-3.95818 -1.03125,0 0,-0.9375 -1.90625,0 0,1.96875 -1.125,0 0,4.125 1.0625,0 0,17.90625 -4,0 0,-1.03125 1.03125,0 0,-0.875 c 0,0 0.68653,-0.0589 0.90625,0 0.21972,0.0589 0,-1.03125 0,-1.03125 l 1.125,0 0,-6.0625 -1.03125,0 0,-1.03125 c 0,0 -0.90625,0 -1.03125,0 -0.125,0 0,-1.03125 0,-1.03125 l -2.90625,0 0,1.0625 -2.1875,0 0,0.96875 -0.9375,0 0,6.0625 1.04687,1.04688 0.98438,0 0,1.82812 -2.96875,0 0,-61.875 -2.03125,0 0,61.99434 -2.00885,0 -0.97227,0 0,6.93848 -3.13779,0 -7.24784,-0.97227 -11.62307,0 -7.07107,0.88389 0,1.14904 12.9489,2.96101 0,2.12132 2.07712,0 0,1.06066 -3.09359,0.92808 0.57452,0.92808 -2.2097,17.81025 -0.53033,3.97748 -2.69585,3.31456 -1.01646,0 c 0,0 0.0471,-1.45761 0,-1.28163 -0.0472,0.17598 -0.97228,0.13258 -0.97228,0.13258 l 0,-3.0494 -0.92807,0 0,6.07228 -172.84337,0 -74.125,2.0625 0,-1.08581 -3.11541,0 0,0.99437 -4.88459,-0.0336 -3.1875,-1.96875 -0.90625,0.0625 -2.5625,2.03125 -2.34375,0 -0.9375,0.9375 -5.21875,0 0,-2.03125 1.09375,0 0,-0.96875 -4.125,0 0,3 -1.0625,0 0,-3.03125 -3.90625,0 0,1.03125 1,0 0,1.96875 -5.03125,0 0,-0.96875 -4.90625,0 -2.09375,2.09375 -15.9375,0 -3.96875,0.90625 -11,0 -3.03125,0.9375 -7.03125,0 0,-0.9375 -2.03125,0 0,-1 -2.9375,0 0,3 -27.96875,3.03125 -10,3.59375 -2,0.71875 -3,2.6875 0,1 -1.03125,0 0,9.9375 1.03125,0 0,34 4,0 0,1 -2.03125,0 0,1.0625 2.96875,1.90625 z"
       id="path2996"
       inkscape:connector-curvature="0" />
    <path
       style="fill:none;stroke:#000000;stroke-width:1px;stroke-linecap:butt;stroke-linejoin:miter;stroke-opacity:1"
       d="m 76.53732,537.58845 17.279921,-8.52948 204.057759,-4.85304 96.99295,-0.0967 0,8.48529"
       id="path3024"
       inkscape:connector-curvature="0" />
    <path
       style="fill:none;stroke:#000000;stroke-width:1px;stroke-linecap:butt;stroke-linejoin:miter;stroke-opacity:1"
       d="m 178.84683,533.83194 4.15425,-7.82237 -0.0884,7.6456"
       id="path3026"
       inkscape:connector-curvature="0" />
    <path
       style="fill:none;stroke:#000000;stroke-width:1px;stroke-linecap:butt;stroke-linejoin:miter;stroke-opacity:1"
       d="M 182.90625,526.11218 448.375,474.04968"
       id="path3028"
       inkscape:connector-curvature="0" />
    <path
       style="fill:none;stroke:#000000;stroke-width:1px;stroke-linecap:butt;stroke-linejoin:miter;stroke-opacity:1"
       d="m 421.16349,489.54938 -2.43068,-18.38478 -0.61872,0 2.38648,18.42897"
       id="path3034"
       inkscape:connector-curvature="0" />
    <path
       style="fill:none;stroke:#000000;stroke-width:1px;stroke-linecap:butt;stroke-linejoin:miter;stroke-opacity:1"
       d="m 297.99432,532.50612 0,-8.30851"
       id="path3036"
       inkscape:connector-curvature="0" />
    <path
       style="fill:none;stroke:#000000;stroke-width:1px;stroke-linecap:butt;stroke-linejoin:miter;stroke-opacity:1"
       d="m 423.4375,489.79968 0.0683,7.48368"
       id="path3038"
       inkscape:connector-curvature="0" />
    <path
       style="fill:none;stroke:#000000;stroke-width:1px;stroke-linecap:butt;stroke-linejoin:miter;stroke-opacity:1"
       d="m 425.45032,489.46099 0,7.68979"
       id="path3040"
       inkscape:connector-curvature="0" />
    <path
       style="fill:none;stroke:#000000;stroke-width:1px;stroke-linecap:butt;stroke-linejoin:miter;stroke-opacity:1"
       d="m 420.63316,489.54938 27.75394,-0.0442"
       id="path3044"
       inkscape:connector-curvature="0" />
    <path
       style="fill:none;stroke:#000000;stroke-width:1px;stroke-linecap:butt;stroke-linejoin:miter;stroke-opacity:1"
       d="m 430.97459,489.54938 -0.0884,7.51301 -2.12132,0 0,-7.6014"
       id="path3046"
       inkscape:connector-curvature="0" />
    <path
       style="fill:none;stroke:#000000;stroke-width:1px;stroke-linecap:butt;stroke-linejoin:miter;stroke-opacity:1"
       d="m 435.4824,489.4168 0,7.73398 2.96101,0 0,-7.6014"
       id="path3048"
       inkscape:connector-curvature="0" />
    <path
       style="fill:none;stroke:#000000;stroke-width:1px;stroke-linecap:butt;stroke-linejoin:miter;stroke-opacity:1"
       d="m 442.37669,489.50519 0,7.5572 3.13779,0 0,-7.42462"
       id="path3050"
       inkscape:connector-curvature="0" />
    <path
       style="fill:none;stroke:#000000;stroke-width:1px;stroke-linecap:butt;stroke-linejoin:miter;stroke-opacity:1"
       d="m 448.56387,489.46099 0,7.68979 -27.04683,0 -4.02167,-0.53033"
       id="path3052"
       inkscape:connector-curvature="0" />
    <path
       style="fill:none;stroke:#000000;stroke-width:1px;stroke-linecap:butt;stroke-linejoin:miter;stroke-opacity:1"
       d="m 420.5,494.11218 59.90625,0"
       id="path3054"
       inkscape:connector-curvature="0" />
    <path
       style="fill:none;stroke:#000000;stroke-width:1px;stroke-linecap:butt;stroke-linejoin:miter;stroke-opacity:1"
       d="m 472.53125,489.64343 -24.1875,0"
       id="path3056"
       inkscape:connector-curvature="0" />
    <path
       style="fill:none;stroke:#000000;stroke-width:1px;stroke-linecap:butt;stroke-linejoin:miter;stroke-opacity:1"
       d="m 448.53125,497.11218 29.875,0 2.125,-0.46875"
       id="path3058"
       inkscape:connector-curvature="0" />
    <path
       style="fill:none;stroke:#000000;stroke-width:1px;stroke-linecap:butt;stroke-linejoin:miter;stroke-opacity:1"
       d="m 449.93389,497.0182 0,-7.33624"
       id="path3060"
       inkscape:connector-curvature="0" />
    <path
       style="fill:none;stroke:#000000;stroke-width:1px;stroke-linecap:butt;stroke-linejoin:miter;stroke-opacity:1"
       d="m 460.01017,489.63777 0,7.29204"
       id="path3062"
       inkscape:connector-curvature="0" />
    <path
       style="fill:none;stroke:#000000;stroke-width:1px;stroke-linecap:butt;stroke-linejoin:miter;stroke-opacity:1"
       d="m 469.95385,489.59357 0,7.51301"
       id="path3064"
       inkscape:connector-curvature="0" />
    <path
       style="fill:none;stroke:#000000;stroke-width:1px;stroke-linecap:butt;stroke-linejoin:miter;stroke-opacity:1"
       d="m 395.39828,532.55031 99.08334,0"
       id="path3066"
       inkscape:connector-curvature="0" />
    <path
       style="fill:none;stroke:#000000;stroke-width:1px;stroke-linecap:butt;stroke-linejoin:miter;stroke-opacity:1"
       d="m 494.70259,524.13132 -11.73355,0"
       id="path3068"
       inkscape:connector-curvature="0" />
    <path
       style="fill:none;stroke:#000000;stroke-width:1px;stroke-linecap:butt;stroke-linejoin:miter;stroke-opacity:1"
       d="m 472.87067,524.24181 -70.97584,0"
       id="path3070"
       inkscape:connector-curvature="0" />
    <path
       style="fill:none;stroke:#000000;stroke-width:1px;stroke-linecap:butt;stroke-linejoin:miter;stroke-opacity:1"
       d="m 472.96875,531.51843 0,-13.90625 0.5,-0.5 6.03125,0 0.53125,0.53125 0,13 0,1.03125 -0.76563,0.76563 -5.57812,0 z"
       id="path3072"
       inkscape:connector-curvature="0" />
    <path
       style="fill:none;stroke:#000000;stroke-width:1px;stroke-linecap:butt;stroke-linejoin:miter;stroke-opacity:1"
       d="m 501.4643,511.24872 -5.54637,0 0,-4.15425 5.43588,0"
       id="path3074"
       inkscape:connector-curvature="0" />
    <path
       style="fill:none;stroke:#000000;stroke-width:1px;stroke-linecap:butt;stroke-linejoin:miter;stroke-opacity:1"
       d="m 16.8125,560.17468 24.5625,0 3.46875,3.46875 0,27.96875 -3.359375,3.35938 -19.421875,0"
       id="path3076"
       inkscape:connector-curvature="0" />
    <path
       style="fill:none;stroke:#000000;stroke-width:1px;stroke-linecap:butt;stroke-linejoin:miter;stroke-opacity:1"
       d="m 17.4375,561.17468 23.3125,0 0,32.8125 -23,0"
       id="path3078"
       inkscape:connector-curvature="0" />
    <path
       style="fill:none;stroke:#000000;stroke-width:1px;stroke-linecap:butt;stroke-linejoin:miter;stroke-opacity:1"
       d="m 22.625,595.01843 -1.1875,0"
       id="path3082"
       inkscape:connector-curvature="0" />
    <path
       style="fill:none;stroke:#000000;stroke-width:1px;stroke-linecap:butt;stroke-linejoin:miter;stroke-opacity:1"
       d="m 22.554136,594.53264 -1.281631,0.0442"
       id="path3084"
       inkscape:connector-curvature="0" />
    <path
       style="fill:none;stroke:#000000;stroke-width:1px;stroke-linecap:butt;stroke-linejoin:miter;stroke-opacity:1"
       d="m 40.784233,577.05384 5.391689,0 3.314563,-0.88388 0.447015,-0.10465 0,-1.96875 -0.960938,-0.96094 0,-1.13281 1.925782,-1.92578 12.582031,-5.9961 4.953125,-1 6.0625,0 1.6875,1 2.1875,0 1.5,0.65625 0,0.78125 -7.28125,6.09375 -1.65625,4.5 61.5,0 6.4375,1.4375 0,1.125 -8.5625,2.5 -9,0 -3.9123,1.0483 -20.7752,0 -4.063877,-1.08891 -7.186123,0 -1.935238,-1.11731 -7.252262,-0.90458 -6.34375,0 0,3.5625 1.03125,1.03125 0,2.03125 -1.296875,1.29688 -10.296875,0 -5.75362,-3.32186 -1.610701,-1.6107 0,-2.89557 -6.073179,0 0,-1 -4.9375,0"
       id="path3086"
       inkscape:connector-curvature="0" />
    <path
       style="fill:none;stroke:#000000;stroke-width:1px;stroke-linecap:butt;stroke-linejoin:miter;stroke-opacity:1"
       d="m 40.717942,577.58417 4.176349,-0.0221"
       id="path3088"
       inkscape:connector-curvature="0" />
    <path
       style="fill:none;stroke:#000000;stroke-width:1px;stroke-linecap:butt;stroke-linejoin:miter;stroke-opacity:1"
       d="m 49.96875,576.04968 4.453125,0 2.53125,1.15625 0,-8.01562 2.546875,0 1.927574,-1.11289 2.994301,0 1.54863,1.54863 0,6.57988 5.01387,0"
       id="path3094"
       inkscape:connector-curvature="0" />
    <path
       style="fill:none;stroke:#000000;stroke-width:1px;stroke-linecap:butt;stroke-linejoin:miter;stroke-opacity:1"
       d="m 52,579.04968 3.21875,0 1.758073,-1.01502 0,7.57752"
       id="path3096"
       inkscape:connector-curvature="0" />
    <path
       style="fill:none;stroke:#000000;stroke-width:1px;stroke-linecap:butt;stroke-linejoin:miter;stroke-opacity:1"
       d="m 66.019106,575.99318 0,11.04855"
       id="path3098"
       inkscape:connector-curvature="0" />
    <path
       sodipodi:type="arc"
       style="fill:#ffffff;stroke:#000000"
       id="path3114"
       sodipodi:cx="2.722523"
       sodipodi:cy="555.10443"
       sodipodi:rx="5.874918"
       sodipodi:ry="2.7485759"
       d="m 8.597441,555.10443 a 5.874918,2.7485759 0 1 1 -11.749836,0 5.874918,2.7485759 0 1 1 11.749836,0 z"
       transform="translate(38,0)" />
    <path
       style="fill:none;stroke:#000000;stroke-width:1px;stroke-linecap:butt;stroke-linejoin:miter;stroke-opacity:1"
       d="m 40.910699,552.38508 24.685679,0"
       id="path3124"
       inkscape:connector-curvature="0" />
    <path
       style="fill:none;stroke:#000000;stroke-width:1px;stroke-linecap:butt;stroke-linejoin:miter;stroke-opacity:1"
       d="m 40.542256,557.80119 24.980433,0"
       id="path3128"
       inkscape:connector-curvature="0" />
    <path
       style="fill:none;stroke:#000000;stroke-width:1px;stroke-linecap:butt;stroke-linejoin:miter;stroke-opacity:1"
       d="m 65.080558,557.87488 c 0,0 5.858243,-0.25791 5.858243,-3.02123 0,-2.76332 -5.895088,-2.43172 -5.895088,-2.43172"
       id="path3130"
       inkscape:connector-curvature="0" />
    <path
       style="fill:none;stroke:#000000;stroke-width:1px;stroke-linecap:butt;stroke-linejoin:miter;stroke-opacity:1"
       d="m 782.01734,543.13314 -39.23559,0 0,-9.90008 38.29769,0"
       id="path3142"
       inkscape:connector-curvature="0" />
    <path
       style="fill:none;stroke:#000000;stroke-width:1px;stroke-linecap:butt;stroke-linejoin:miter;stroke-opacity:1"
       d="m 778.10941,558.19169 -708.533354,-6.98216 -52.9915,-0.10422"
       id="path3144"
       inkscape:connector-curvature="0" />
    <path
       style="fill:none;stroke:#000000;stroke-width:1px;stroke-linecap:butt;stroke-linejoin:miter;stroke-opacity:1"
       d="m 779.7768,585.13034 -29.90868,0 0,19.12279 28.44972,0"
       id="path3148"
       inkscape:connector-curvature="0" />
    <path
       style="fill:none;stroke:#000000;stroke-width:1px;stroke-linecap:butt;stroke-linejoin:miter;stroke-opacity:1"
       d="m 91.718984,536.83679 2.247502,-7.84784 0,7.73731"
       id="path3150"
       inkscape:connector-curvature="0" />
    <path
       style="fill:none;stroke:#000000;stroke-width:1px;stroke-linecap:butt;stroke-linejoin:miter;stroke-opacity:1"
       d="m 490.26374,496.56597 2.21065,0.14738"
       id="path3154"
       inkscape:connector-curvature="0" />
    <path
       style="fill:none;stroke:#000000;stroke-width:1px;stroke-linecap:butt;stroke-linejoin:miter;stroke-opacity:1"
       d="m 496.85887,532.59969 2.06328,-8.51103 0,8.58472"
       id="path3158"
       inkscape:connector-curvature="0" />
    <path
       style="fill:none;stroke:#000000;stroke-width:1px;stroke-linecap:butt;stroke-linejoin:miter;stroke-opacity:1"
       d="m 498.87495,524.19272 62.05789,0 121.92735,-3.10029 68.46689,7.39901"
       id="path3160"
       inkscape:connector-curvature="0" />
    <path
       style="fill:none;stroke:#000000;stroke-width:1px;stroke-linecap:butt;stroke-linejoin:miter;stroke-opacity:1"
       d="m 682.86019,529.63776 -0.0521,-8.70165 2.97003,8.80587"
       id="path3162"
       inkscape:connector-curvature="0" />
    <path
       style="fill:none;stroke:#000000;stroke-width:1px;stroke-linecap:butt;stroke-linejoin:miter;stroke-opacity:1"
       d="m 618.85033,530.49957 0,-7.88468"
       id="path3164"
       inkscape:connector-curvature="0" />
    <path
       style="fill:none;stroke:#000000;stroke-width:1px;stroke-linecap:butt;stroke-linejoin:miter;stroke-opacity:1"
       d="m 560.85741,532.37863 0,-8.25312"
       id="path3166"
       inkscape:connector-curvature="0" />
    <path
       style="fill:none;stroke:#000000;stroke-width:1px;stroke-linecap:butt;stroke-linejoin:miter;stroke-opacity:1"
       d="m 397.89409,546.10317 0,17.97646 70.96797,0 0,-17.92436 z"
       id="path3168"
       inkscape:connector-curvature="0" />
    <path
       sodipodi:type="arc"
       style="fill:#ffffff;stroke:#000000"
       id="path3192"
       sodipodi:cx="190.30305"
       sodipodi:cy="554.59637"
       sodipodi:rx="5.3278084"
       sodipodi:ry="3.4389765"
       d="m 195.63086,554.59637 a 5.3278084,3.4389765 0 1 1 -10.65561,0 5.3278084,3.4389765 0 1 1 10.65561,0 z"
       transform="translate(38,0)" />
    <path
       style="fill:none;stroke:#000000;stroke-width:1px;stroke-linecap:butt;stroke-linejoin:miter;stroke-opacity:1"
       d="m 235.01167,552.7727 -13.75591,0"
       id="path3194"
       inkscape:connector-curvature="0" />
    <path
       style="fill:none;stroke:#000000;stroke-width:1px;stroke-linecap:butt;stroke-linejoin:miter;stroke-opacity:1"
       d="m 66.038509,572.31785 9.984805,-6.04247 2.910699,0 -3.058076,2.54226 0.110532,-2.54226"
       id="path3196"
       inkscape:connector-curvature="0" />
    <path
       style="fill:none;stroke:#000000;stroke-width:1px;stroke-linecap:butt;stroke-linejoin:miter;stroke-opacity:1"
       d="m 69.914743,579.06002 -3.986086,0"
       id="path3198"
       inkscape:connector-curvature="0" />
    <path
       style="fill:none;stroke:#000000;stroke-width:1px;stroke-linecap:butt;stroke-linejoin:miter;stroke-opacity:1"
       d="m 65.980763,582.39479 4.168456,4.01214"
       id="path3200"
       inkscape:connector-curvature="0" />
    <path
       style="fill:none;stroke:#000000;stroke-width:1px;stroke-linecap:butt;stroke-linejoin:miter;stroke-opacity:1"
       d="m 87.850333,570.07034 0,4.05288 -12.85866,0 0,-3.94234 z"
       id="path3210"
       inkscape:connector-curvature="0" />
    <rect
       style="fill:#ffffff;stroke:#000000"
       id="rect3216"
       width="3.0764987"
       height="3.9239175"
       x="89.895187"
       y="570.18085" />
    <rect
       style="fill:#ffffff;stroke:#000000"
       id="rect3218"
       width="3.0212324"
       height="3.9239175"
       x="94.942856"
       y="570.18085" />
    <rect
       style="fill:#ffffff;stroke:#000000"
       id="rect3222"
       width="2.9659657"
       height="3.997606"
       x="99.935257"
       y="570.16248" />
    <rect
       style="fill:#ffffff;stroke:#000000"
       id="rect3224"
       width="2.996078"
       height="2.1363339"
       x="109.93192"
       y="571.08783" />
    <rect
       style="fill:#ffffff;stroke:#000000"
       id="rect3226"
       width="3.0221307"
       height="2.110281"
       x="114.93407"
       y="571.16602" />
    <rect
       style="fill:#ffffff;stroke:#000000"
       id="rect3228"
       width="3.9600334"
       height="3.9339807"
       x="119.91016"
       y="570.20203" />
    <rect
       style="fill:#ffffff;stroke:#000000"
       id="rect3230"
       width="4.0121393"
       height="3.9600334"
       x="125.95444"
       y="570.14996" />
    <rect
       style="fill:#ffffff;stroke:#000000"
       id="rect3232"
       width="3.9339807"
       height="3.9079278"
       x="131.97263"
       y="570.20203" />
    <path
       style="fill:none;stroke:#000000;stroke-width:1px;stroke-linecap:butt;stroke-linejoin:miter;stroke-opacity:1"
       d="m 56.827435,582.11843 -4.900291,0"
       id="path3234"
       inkscape:connector-curvature="0" />
    <path
       style="fill:none;stroke:#000000;stroke-width:1px;stroke-linecap:butt;stroke-linejoin:miter;stroke-opacity:1"
       d="m 49.016445,572.17047 7.995212,0"
       id="path3236"
       inkscape:connector-curvature="0" />
    <path
       sodipodi:type="arc"
       style="fill:#ffffff;stroke:#000000"
       id="path3238"
       sodipodi:cx="728.83545"
       sodipodi:cy="553.65619"
       sodipodi:rx="5.6924438"
       sodipodi:ry="3.5186303"
       d="m 734.52789,553.65619 a 5.6924438,3.5186303 0 1 1 -11.38488,0 5.6924438,3.5186303 0 1 1 11.38488,0 z"
       transform="translate(38,0)" />
    <path
       sodipodi:type="arc"
       style="fill:#ffffff;stroke:#000000"
       id="path3240"
       sodipodi:cx="728.68805"
       sodipodi:cy="562.62781"
       sodipodi:rx="5.7661324"
       sodipodi:ry="3.4265196"
       d="m 734.45418,562.62781 a 5.7661324,3.4265196 0 1 1 -11.53226,0 5.7661324,3.4265196 0 1 1 11.53226,0 z"
       transform="translate(38,0)" />
    <path
       sodipodi:type="arc"
       style="fill:#ffffff;stroke:#000000"
       id="path3242"
       sodipodi:cx="728.68805"
       sodipodi:cy="571.7099"
       sodipodi:rx="5.5819111"
       sodipodi:ry="3.4449418"
       d="m 734.26996,571.7099 a 5.5819111,3.4449418 0 1 1 -11.16382,0 5.5819111,3.4449418 0 1 1 11.16382,0 z"
       transform="translate(38,0)" />
    <path
       style="fill:none;stroke:#000000;stroke-width:1px;stroke-linecap:butt;stroke-linejoin:miter;stroke-opacity:1"
       d="m 766.85387,550.13758 -16.91153,0 0,6.96357 16.69046,0"
       id="path3244"
       inkscape:connector-curvature="0" />
    <path
       style="fill:none;stroke:#000000;stroke-width:1px;stroke-linecap:butt;stroke-linejoin:miter;stroke-opacity:1"
       d="m 749.97918,557.87488 0,17.31682"
       id="path3246"
       inkscape:connector-curvature="0" />
    <path
       style="fill:none;stroke:#000000;stroke-width:1px;stroke-linecap:butt;stroke-linejoin:miter;stroke-opacity:1"
       d="m 766.70649,559.23812 -16.76415,0"
       id="path3250"
       inkscape:connector-curvature="0" />
    <path
       style="fill:none;stroke:#000000;stroke-width:1px;stroke-linecap:butt;stroke-linejoin:miter;stroke-opacity:1"
       d="m 750.495,559.27497 -7.66361,0"
       id="path3256"
       inkscape:connector-curvature="0" />
    <path
       style="fill:none;stroke:#000000;stroke-width:1px;stroke-linecap:butt;stroke-linejoin:miter;stroke-opacity:1"
       d="m 766.30121,575.22855 -24.50146,0"
       id="path3260"
       inkscape:connector-curvature="0" />
    <path
       style="fill:none;stroke:#000000;stroke-width:1px;stroke-linecap:butt;stroke-linejoin:miter;stroke-opacity:1"
       d="m 766.59596,568.15444 -22.10658,0"
       id="path3262"
       inkscape:connector-curvature="0" />
    <path
       style="fill:none;stroke:#000000;stroke-width:1px;stroke-linecap:butt;stroke-linejoin:miter;stroke-opacity:1"
       d="m 766.6328,566.05432 -23.76457,0"
       id="path3264"
       inkscape:connector-curvature="0" />
    <path
       style="fill:none;stroke:#000000;stroke-width:1px;stroke-linecap:butt;stroke-linejoin:miter;stroke-opacity:1"
       d="m 750.05287,550.17442 -7.88468,0"
       id="path3266"
       inkscape:connector-curvature="0" />
    <path
       style="fill:none;stroke:#000000;stroke-width:1px;stroke-linecap:butt;stroke-linejoin:miter;stroke-opacity:1"
       d="m 751.01082,556.99062 -10.05849,0"
       id="path3268"
       inkscape:connector-curvature="0" />
    <path
       style="fill:none;stroke:#000000;stroke-width:1px;stroke-linecap:butt;stroke-linejoin:miter;stroke-opacity:1"
       d="m 743.27352,559.23812 c 0,0 -5.89509,0.51582 -6.44775,3.35283 -0.55267,2.83701 6.55828,3.50021 6.55828,3.50021"
       id="path3272"
       inkscape:connector-curvature="0" />
    <path
       style="fill:none;stroke:#000000;stroke-width:1px;stroke-linecap:butt;stroke-linejoin:miter;stroke-opacity:1"
       d="m 743.56827,568.1176 c 0,0 -6.00562,-0.36845 -6.77935,3.53705 -0.77373,3.90549 6.41091,3.53705 6.41091,3.53705"
       id="path3274"
       inkscape:connector-curvature="0" />
    <path
       style="fill:none;stroke:#000000;stroke-width:1px;stroke-linecap:butt;stroke-linejoin:miter;stroke-opacity:1"
       d="m 745.44733,568.15444 -2.94754,0"
       id="path3276"
       inkscape:connector-curvature="0" />
    <path
       style="fill:none;stroke:#000000;stroke-width:1px;stroke-linecap:butt;stroke-linejoin:miter;stroke-opacity:1"
       d="m 741.61553,556.95377 c 0,0 -4.75292,-1.17901 -4.78976,-3.53705 -0.0369,-2.35803 6.07931,-3.27914 6.07931,-3.27914"
       id="path3278"
       inkscape:connector-curvature="0" />
    <path
       style="fill:none;stroke:#000000;stroke-width:1px;stroke-linecap:butt;stroke-linejoin:miter;stroke-opacity:1"
       d="m 715.89821,545.23729 1.14217,-1.14217 10.75854,0 0.84821,1.46914 0,6.41553 -2.19675,1.2683 -8.15729,0 -2.23054,-1.2878 0,-6.723"
       id="path3280"
       inkscape:connector-curvature="0" />
    <path
       style="fill:none;stroke:#000000;stroke-width:1px;stroke-linecap:butt;stroke-linejoin:miter;stroke-opacity:1"
       d="m 716.96337,547.09318 2.89187,2.03212 5.0803,0.0782 2.91792,-1.98002 -0.0521,-1.22448 -0.85975,-0.8337 -8.98823,0 -0.91185,0.8337 z"
       id="path3282"
       inkscape:connector-curvature="0" />
    <path
       style="fill:none;stroke:#000000;stroke-width:1px;stroke-linecap:butt;stroke-linejoin:miter;stroke-opacity:1"
       d="m 58.043297,552.31139 0,5.60034"
       id="path3284"
       inkscape:connector-curvature="0" />
    <rect
       style="fill:#ffffff;stroke:#000000"
       id="rect3288"
       width="3.9054954"
       height="2.9106994"
       x="662.95294"
       y="561.19086" />
    <rect
       style="fill:#ffffff;stroke:#000000"
       id="rect3290"
       width="4.0528727"
       height="3.0580766"
       x="674.92737"
       y="561.22772" />
    <rect
       style="fill:#ffffff;stroke:#000000"
       id="rect3292"
       width="4.0897169"
       height="2.7633221"
       x="687.01227"
       y="561.26459" />
    <rect
       style="fill:#ffffff;stroke:#000000"
       id="rect3296"
       width="36.881142"
       height="0.99479598"
       x="600.94403"
       y="602.12488" />
    <rect
       style="fill:#ffffff;stroke:#000000"
       id="rect3298"
       width="17.022064"
       height="0.8842631"
       x="572.94232"
       y="603.08282" />
    <rect
       style="fill:#ffffff;stroke:#000000"
       id="rect3300"
       width="2.0264363"
       height="2.9106994"
       x="398.92673"
       y="601.13007" />
    <rect
       style="fill:#ffffff;stroke:#000000"
       id="rect3302"
       width="1.9159034"
       height="2.7264779"
       x="403.01645"
       y="601.2406" />
    <rect
       style="fill:#ffffff;stroke:#000000"
       id="rect3304"
       width="1.989592"
       height="2.6896336"
       x="407.03247"
       y="601.2406" />
    <rect
       style="fill:#ffffff;stroke:#000000"
       id="rect3306"
       width="1.7685262"
       height="2.6896336"
       x="411.08536"
       y="601.27747" />
    <rect
       style="fill:#ffffff;stroke:#000000"
       id="rect3308"
       width="1.989592"
       height="2.9106994"
       x="415.02768"
       y="601.16693" />
    <rect
       style="fill:#ffffff;stroke:#000000"
       id="rect3310"
       width="35.996876"
       height="0.51582015"
       x="291.85721"
       y="603.11969" />
    <rect
       style="fill:#ffffff;stroke:#000000"
       id="rect3312"
       width="13.779767"
       height="0.8842631"
       x="225.9796"
       y="603.11969" />
    <rect
       style="fill:#ffffff;stroke:#000000"
       id="rect3314"
       width="2.8658137"
       height="3.6473992"
       x="698.07507"
       y="600.29309" />
    <rect
       style="fill:#ffffff;stroke:#000000"
       id="rect3316"
       width="3.0742364"
       height="3.6995049"
       x="702.9209"
       y="600.1889" />
    <rect
       style="fill:#ffffff;stroke:#000000"
       id="rect3318"
       width="2.9179194"
       height="3.5952935"
       x="708.02722"
       y="600.29309" />
    <rect
       style="fill:#ffffff;stroke:#000000"
       id="rect3320"
       width="2.9700251"
       height="3.3868706"
       x="713.02942"
       y="600.34521" />
    <rect
       style="fill:#ffffff;stroke:#000000"
       id="rect3324"
       width="2.9179194"
       height="3.5952935"
       x="717.97943"
       y="600.24097" />
    <rect
       style="fill:#ffffff;stroke:#000000"
       id="rect3326"
       width="2.9700251"
       height="3.5431879"
       x="722.98157"
       y="600.24097" />
    <rect
       style="fill:#ffffff;stroke:#000000"
       id="rect3328"
       width="2.8137081"
       height="3.6995049"
       x="728.14001"
       y="600.1889" />
    <rect
       style="fill:#ffffff;stroke:#000000"
       id="rect3334"
       width="2.9700251"
       height="3.6473992"
       x="732.9859"
       y="600.13678" />
    <rect
       style="fill:#ffffff;stroke:#000000"
       id="rect3336"
       width="2.8137081"
       height="3.5431879"
       x="738.0401"
       y="600.29309" />
    <rect
       style="fill:#ffffff;stroke:#000000"
       id="rect3338"
       width="4.3247733"
       height="3.2305536"
       x="466.88205"
       y="501.13596" />
    <rect
       style="fill:#ffffff;stroke:#000000"
       id="rect3340"
       width="5.0542531"
       height="3.0742364"
       x="457.97198"
       y="500.09384" />
    <rect
       style="fill:#ffffff;stroke:#000000"
       id="rect3342"
       width="5.0542531"
       height="5.992156"
       x="457.91986"
       y="506.13809" />
    <rect
       style="fill:#ffffff;stroke:#000000"
       id="rect3344"
       width="5.0021477"
       height="3.3868706"
       x="457.91986"
       y="514.89185" />
    <rect
       style="fill:#ffffff;stroke:#000000"
       id="rect3346"
       width="11.458576"
       height="3.3896754"
       x="489.89529"
       y="499.14508" />
    <rect
       style="fill:#ffffff;stroke:#000000"
       id="rect3350"
       width="4.3768792"
       height="5.3147817"
       x="427.72461"
       y="480.97104" />
    <path
       sodipodi:type="arc"
       style="fill:#ffffff;stroke:#000000"
       id="path3352"
       sodipodi:cx="122.96946"
       sodipodi:cy="548.13531"
       sodipodi:rx="2.084228"
       sodipodi:ry="3.1263423"
       d="m 125.05369,548.13531 a 2.084228,3.1263423 0 1 1 -4.16846,0 2.084228,3.1263423 0 1 1 4.16846,0 z"
       transform="translate(38,0)" />
    <path
       sodipodi:type="arc"
       style="fill:#ffffff;stroke:#000000"
       id="path3354"
       sodipodi:cx="164.78429"
       sodipodi:cy="548.39581"
       sodipodi:rx="2.3187039"
       sodipodi:ry="3.2305536"
       d="m 167.10299,548.39581 a 2.3187039,3.2305536 0 1 1 -4.63741,0 2.3187039,3.2305536 0 1 1 4.63741,0 z"
       transform="translate(38,0)" />
    <path
       transform="translate(107.8477,-0.36473473)"
       sodipodi:type="arc"
       style="fill:#ffffff;stroke:#000000"
       id="path3354-7"
       sodipodi:cx="164.78429"
       sodipodi:cy="548.39581"
       sodipodi:rx="2.3187039"
       sodipodi:ry="3.2305536"
       d="m 167.10299,548.39581 a 2.3187039,3.2305536 0 1 1 -4.63741,0 2.3187039,3.2305536 0 1 1 4.63741,0 z" />
    <path
       transform="translate(149.58436,-0.31262898)"
       sodipodi:type="arc"
       style="fill:#ffffff;stroke:#000000"
       id="path3354-4"
       sodipodi:cx="164.78429"
       sodipodi:cy="548.39581"
       sodipodi:rx="2.3187039"
       sodipodi:ry="3.2305536"
       d="m 167.10299,548.39581 a 2.3187039,3.2305536 0 1 1 -4.63741,0 2.3187039,3.2305536 0 1 1 4.63741,0 z" />
    <path
       transform="translate(202.78429,-0.1042062)"
       sodipodi:type="arc"
       style="fill:#ffffff;stroke:#000000"
       id="path3354-0"
       sodipodi:cx="164.78429"
       sodipodi:cy="548.39581"
       sodipodi:rx="2.3187039"
       sodipodi:ry="3.2305536"
       d="m 167.10299,548.39581 a 2.3187039,3.2305536 0 1 1 -4.63741,0 2.3187039,3.2305536 0 1 1 4.63741,0 z" />
    <path
       transform="translate(319.34475,5.2619494e-6)"
       sodipodi:type="arc"
       style="fill:#ffffff;stroke:#000000"
       id="path3354-9"
       sodipodi:cx="164.78429"
       sodipodi:cy="548.39581"
       sodipodi:rx="2.3187039"
       sodipodi:ry="3.2305536"
       d="m 167.10299,548.39581 a 2.3187039,3.2305536 0 1 1 -4.63741,0 2.3187039,3.2305536 0 1 1 4.63741,0 z" />
    <path
       transform="translate(415.06292,-0.72947456)"
       sodipodi:type="arc"
       style="fill:#ffffff;stroke:#000000"
       id="path3354-48"
       sodipodi:cx="164.78429"
       sodipodi:cy="548.39581"
       sodipodi:rx="2.3187039"
       sodipodi:ry="3.2305536"
       d="m 167.10299,548.39581 a 2.3187039,3.2305536 0 1 1 -4.63741,0 2.3187039,3.2305536 0 1 1 4.63741,0 z" />
    <path
       transform="translate(432.93518,-0.31262894)"
       sodipodi:type="arc"
       style="fill:#ffffff;stroke:#000000"
       id="path3354-8"
       sodipodi:cx="164.78429"
       sodipodi:cy="548.39581"
       sodipodi:rx="2.3187039"
       sodipodi:ry="3.2305536"
       d="m 167.10299,548.39581 a 2.3187039,3.2305536 0 1 1 -4.63741,0 2.3187039,3.2305536 0 1 1 4.63741,0 z" />
    <path
       transform="translate(462.53122,-0.67736891)"
       sodipodi:type="arc"
       style="fill:#ffffff;stroke:#000000"
       id="path3354-2"
       sodipodi:cx="164.78429"
       sodipodi:cy="548.39581"
       sodipodi:rx="2.3187039"
       sodipodi:ry="3.2305536"
       d="m 167.10299,548.39581 a 2.3187039,3.2305536 0 1 1 -4.63741,0 2.3187039,3.2305536 0 1 1 4.63741,0 z" />
    <rect
       style="fill:#ffffff;stroke:#000000"
       id="rect3425"
       width="24.09617"
       height="1.9527477"
       x="653.96295"
       y="537.1684" />
    <rect
       style="fill:#ffffff;stroke:#000000"
       id="rect3427"
       width="8.1284895"
       height="4.8979363"
       x="506.79501"
       y="534.17096" />
    <rect
       style="fill:#ffffff;stroke:#000000"
       id="rect3429"
       width="5.9400501"
       height="3.9600334"
       x="459.89987"
       y="535.16095" />
    <path
       sodipodi:type="arc"
       style="fill:#ffffff;stroke:#000000"
       id="path3431"
       sodipodi:cx="406.46356"
       sodipodi:cy="528.76501"
       sodipodi:rx="1.498039"
       sodipodi:ry="2.5922587"
       d="m 407.9616,528.76501 a 1.498039,2.5922587 0 1 1 -2.99608,0 1.498039,2.5922587 0 1 1 2.99608,0 z"
       transform="matrix(1.0040168,0,0,0.97217051,36.367316,14.637101)" />
    <path
       sodipodi:type="arc"
       style="fill:#ffffff;stroke:#000000"
       id="path3433"
       sodipodi:cx="400.0676"
       sodipodi:cy="528.71289"
       sodipodi:rx="1.7976468"
       sodipodi:ry="2.566206"
       d="m 401.86524,528.71289 a 1.7976468,2.566206 0 1 1 -3.59529,0 1.7976468,2.566206 0 1 1 3.59529,0 z"
       transform="translate(38,0)" />
    <path
       transform="translate(32.841531,0.01302424)"
       sodipodi:type="arc"
       style="fill:#ffffff;stroke:#000000"
       id="path3433-4"
       sodipodi:cx="400.0676"
       sodipodi:cy="528.71289"
       sodipodi:rx="1.7976468"
       sodipodi:ry="2.566206"
       d="m 401.86524,528.71289 a 1.7976468,2.566206 0 1 1 -3.59529,0 1.7976468,2.566206 0 1 1 3.59529,0 z" />
    <path
       transform="translate(27.057798,0.01302423)"
       sodipodi:type="arc"
       style="fill:#ffffff;stroke:#000000"
       id="path3433-5"
       sodipodi:cx="400.0676"
       sodipodi:cy="528.71289"
       sodipodi:rx="1.7976468"
       sodipodi:ry="2.566206"
       d="m 401.86524,528.71289 a 1.7976468,2.566206 0 1 1 -3.59529,0 1.7976468,2.566206 0 1 1 3.59529,0 z" />
  </g>
</svg>
