<?xml version="1.0" encoding="UTF-8" standalone="no"?>
<!-- Created with Inkscape (http://www.inkscape.org/) -->

<svg
   xmlns:dc="http://purl.org/dc/elements/1.1/"
   xmlns:cc="http://creativecommons.org/ns#"
   xmlns:rdf="http://www.w3.org/1999/02/22-rdf-syntax-ns#"
   xmlns:svg="http://www.w3.org/2000/svg"
   xmlns="http://www.w3.org/2000/svg"
   xmlns:xlink="http://www.w3.org/1999/xlink"
   xmlns:sodipodi="http://sodipodi.sourceforge.net/DTD/sodipodi-0.dtd"
   xmlns:inkscape="http://www.inkscape.org/namespaces/inkscape"
   width="800"
   height="289"
   id="svg2"
   version="1.1"
   inkscape:version="0.48.4 r9939"
   sodipodi:docname="missile_frigate_hull.svg">
  <defs
     id="defs4" />
  <sodipodi:namedview
     id="base"
     pagecolor="#ffffff"
     bordercolor="#666666"
     borderopacity="1.0"
     inkscape:pageopacity="0.0"
     inkscape:pageshadow="2"
     inkscape:zoom="0.98994949"
     inkscape:cx="92.20965"
     inkscape:cy="62.959347"
     inkscape:document-units="px"
     inkscape:current-layer="layer3"
     showgrid="false"
     inkscape:window-width="1920"
     inkscape:window-height="1018"
     inkscape:window-x="-8"
     inkscape:window-y="-8"
     inkscape:window-maximized="1" />
  <metadata
     id="metadata7">
    <rdf:RDF>
      <cc:Work
         rdf:about="">
        <dc:format>image/svg+xml</dc:format>
        <dc:type
           rdf:resource="http://purl.org/dc/dcmitype/StillImage" />
        <dc:title></dc:title>
      </cc:Work>
    </rdf:RDF>
  </metadata>
  <g
     inkscape:label="Layer 1"
     inkscape:groupmode="layer"
     id="layer1"
     transform="translate(0,-763.36218)"
     style="display:none">
    <image
       y="753.57648"
       x="14.285701"
       id="image2993"
       xlink:href="file:///D:/SemperFi/game/gfx/temp%20gfx/Hulls/missile_frigate/us_missile_frigate_0_GENERAL.png"
       height="289"
       width="800" />
  </g>
  <g
     inkscape:groupmode="layer"
     id="layer3"
     inkscape:label="Vector"
     style="display:inline">
    <path
       style="fill:none;stroke:#000000;stroke-width:1px;stroke-linecap:butt;stroke-linejoin:miter;stroke-opacity:1"
       d="m 37.880721,278.77221 c 0.107511,-1.06631 -0.170659,-0.88389 -1.136422,-0.88389 -0.495237,-11.40493 -6.928607,-20.81435 -7.828682,-29.29442 -0.241836,-2.67846 -1.136422,-1.18424 -1.136422,-4.04061 l 32.198612,0 0,1.01015 123.996223,0 0,1.51523 177.91312,0 0,-1.76777 99.24749,0 0,-0.63134 31.56726,0 0,-1.01016 69.95307,0 0,-0.88388 38.89087,0 0,-0.88388 36.49176,0 0,-1.01016 29.7995,0 0,-1.13642 21.21321,0 0,-1.26269 20.70812,0 0,-0.63134 20.20305,0 0,-1.51523 21.97082,0 0,-0.75762 21.08694,0 0,-0.75761 8.20749,0 0,-20.07678 0.50507,0 0,-16.66752"
       id="path3719"
       inkscape:connector-curvature="0"
       sodipodi:nodetypes="cccccccccccccccccccccccccccccccccccc" />
    <path
       style="fill:none;stroke:#000000;stroke-width:1px;stroke-linecap:butt;stroke-linejoin:miter;stroke-opacity:1"
       d="m 781.85807,214.62752 1.13642,0 0,20.32932 0,0 0,0.88388"
       id="path3721"
       inkscape:connector-curvature="0" />
    <path
       style="fill:none;stroke:#000000;stroke-width:1px;stroke-linecap:butt;stroke-linejoin:miter;stroke-opacity:1"
       d="m 745.74512,278.89847 -707.864399,0 0,-1.13642 -1.010153,0"
       id="path3723"
       inkscape:connector-curvature="0" />
    <path
       style="fill:none;stroke:#000000;stroke-width:1px;stroke-linecap:butt;stroke-linejoin:miter;stroke-opacity:1"
       d="m 131.82491,245.56344 0,-29.67323 4.41941,0 0,1.89404 19.57171,0 0,-4.16688 67.93276,0 0,15.15228 18.18274,0 0,0.88389 98.86869,0 0,-21.08694 -0.88389,0 0,-2.27284 1.13642,0 0,-0.75761 0.88389,0 0,-1.01016 2.0203,0 0,1.13642 0.88389,0 0,1.13643 0.88388,0 0,2.14657 -0.75762,0 0,20.70813 32.07235,0 0,-21.08694 -1.13642,0 0,-3.03045 1.13642,0 0,-0.88389 3.15672,0 0,1.01015 0.88389,0 0,1.01016 1.01015,0 0,2.14657 -2.14657,0 0,21.21321 3.91434,0 0,-13.25826 16.03617,0"
       id="path3725"
       inkscape:connector-curvature="0" />
    <path
       style="fill:none;stroke:#000000;stroke-width:1px;stroke-linecap:butt;stroke-linejoin:miter;stroke-opacity:1"
       d="m 340.54768,229.90608 0,11.86929 -0.75762,0 0,3.15673 -1.01015,0 0,2.0203"
       id="path3727"
       inkscape:connector-curvature="0" />
    <path
       style="fill:none;stroke:#000000;stroke-width:1px;stroke-linecap:butt;stroke-linejoin:miter;stroke-opacity:1"
       d="m 346.60859,246.82613 0,-2.27284 -0.75761,0 0,-3.03046 -1.13642,0 0,-11.99556"
       id="path3731"
       inkscape:connector-curvature="0" />
    <path
       style="fill:none;stroke:#000000;stroke-width:1px;stroke-linecap:butt;stroke-linejoin:miter;stroke-opacity:1"
       d="m 459.87195,238.87118 28.78934,0 0,-1.13642 3.283,0 0,-1.01015 3.03046,0 0,-1.01016 1.76776,0 0,-0.75761 2.27285,0 0,-1.26269 0.75761,0 0,-1.38896 2.39911,0 0,-1.38896 1.01016,0 0,-2.39911 0.63134,0 0,-6.06092 -1.13642,0 0,-1.01015 -1.01015,0 0,-0.75762 -10.85914,0 0,-9.09137"
       id="path3733"
       inkscape:connector-curvature="0" />
    <path
       style="fill:none;stroke:#000000;stroke-width:1px;stroke-linecap:butt;stroke-linejoin:miter;stroke-opacity:1"
       d="m 526.79455,243.79567 0,-32.07234 -86.99938,0 0,7.07107 -1.38896,0 0,1.13642 -9.72272,0 0,-1.26269 -0.75762,0 0,-15.02602 1.13642,0 0,-0.88388 9.72272,0 0,1.01015 1.13642,0 0,8.08122"
       id="path3735"
       inkscape:connector-curvature="0" />
    <path
       style="fill:none;stroke:#000000;stroke-width:1px;stroke-linecap:butt;stroke-linejoin:miter;stroke-opacity:1"
       d="m 428.17841,211.8496 -23.73858,0"
       id="path3737"
       inkscape:connector-curvature="0" />
    <path
       style="fill:none;stroke:#000000;stroke-width:1px;stroke-linecap:butt;stroke-linejoin:miter;stroke-opacity:1"
       d="m 380.0699,229.77981 0,10.98541 0.75761,0 0,2.77792 1.01015,0 0,1.51522"
       id="path3739"
       inkscape:connector-curvature="0" />
    <path
       style="fill:none;stroke:#000000;stroke-width:1px;stroke-linecap:butt;stroke-linejoin:miter;stroke-opacity:1"
       d="m 376.66063,229.90608 0,10.85914 -0.88388,0 0,2.90418 -1.26269,0 0,1.89404"
       id="path3741"
       inkscape:connector-curvature="0" />
    <path
       style="fill:none;stroke:#000000;stroke-width:1px;stroke-linecap:butt;stroke-linejoin:miter;stroke-opacity:1"
       d="m 467.8269,211.34452 0,-16.79378 -35.48161,0"
       id="path3743"
       inkscape:connector-curvature="0" />
    <path
       style="fill:none;stroke:#000000;stroke-width:1px;stroke-linecap:butt;stroke-linejoin:miter;stroke-opacity:1"
       d="m 448.00265,194.67701 0,-5.93465 -8.9651,0 0,-1.13642 -1.13642,0 0,-3.03046 -1.26269,0 0,-2.77792 -25.50635,0 0,13.76333 -3.53554,0 0,16.03617"
       id="path3745"
       inkscape:connector-curvature="0" />
    <path
       style="fill:none;stroke:#000000;stroke-width:1px;stroke-linecap:butt;stroke-linejoin:miter;stroke-opacity:1"
       d="m 436.89098,181.79756 0,-1.13642 -1.01016,0 0,-1.76777 28.03174,0 0,1.76777 -18.30902,0 0,1.13642 -4.04061,0"
       id="path3747"
       inkscape:connector-curvature="0" />
    <path
       style="fill:none;stroke:#000000;stroke-width:1px;stroke-linecap:butt;stroke-linejoin:miter;stroke-opacity:1"
       d="m 440.0477,178.64083 0,-3.03045 4.04061,0 0,-2.02031 -36.7443,0 0,1.01015 -1.76776,0 0,2.52539 2.39911,0 0,0.88388 1.38896,0 0,1.01015 2.0203,0 0,16.92006"
       id="path3749"
       inkscape:connector-curvature="0" />
    <path
       style="fill:none;stroke:#000000;stroke-width:1px;stroke-linecap:butt;stroke-linejoin:miter;stroke-opacity:1"
       d="m 526.66828,211.8496 0,-1.01015 1.51523,0 0,-2.52538 0.88389,0 0,-1.6415 1.01015,0 0,-10.85914 -12.2481,0 0,7.19733 -27.14785,0 0,8.46003"
       id="path3751"
       inkscape:connector-curvature="0" />
    <path
       style="fill:none;stroke:#000000;stroke-width:1px;stroke-linecap:butt;stroke-linejoin:miter;stroke-opacity:1"
       d="m 486.00964,211.21825 0,-15.53109 13.8896,0 0,7.57614"
       id="path3753"
       inkscape:connector-curvature="0" />
    <path
       style="fill:none;stroke:#000000;stroke-width:1px;stroke-linecap:butt;stroke-linejoin:miter;stroke-opacity:1"
       d="m 444.71966,194.80327 0,2.02031 21.2132,0 0,-2.52538"
       id="path3755"
       inkscape:connector-curvature="0" />
    <path
       style="fill:none;stroke:#000000;stroke-width:1px;stroke-linecap:butt;stroke-linejoin:miter;stroke-opacity:1"
       d="m 486.89353,233.56788 0,-3.15673 -80.4334,0 0,3.40927 z"
       id="path3757"
       inkscape:connector-curvature="0" />
    <path
       style="fill:none;stroke:#000000;stroke-width:1px;stroke-linecap:butt;stroke-linejoin:miter;stroke-opacity:1"
       d="m 259.73547,229.77981 0,1.64149 57.19989,0 0,-1.76776"
       id="path3759"
       inkscape:connector-curvature="0" />
    <path
       style="fill:none;stroke:#000000;stroke-width:1px;stroke-linecap:butt;stroke-linejoin:miter;stroke-opacity:1"
       d="m 308.09653,229.77981 0,-30.17831 -1.38896,0 0,-0.88388 -1.01016,0 0,0.88388 -0.88388,0 0,29.7995"
       id="path3761"
       inkscape:connector-curvature="0" />
    <path
       style="fill:none;stroke:#000000;stroke-width:1px;stroke-linecap:butt;stroke-linejoin:miter;stroke-opacity:1"
       d="m 155.81603,217.40544 0,11.49048 68.05903,0"
       id="path3763"
       inkscape:connector-curvature="0" />
    <path
       style="fill:none;stroke:#000000;stroke-width:1px;stroke-linecap:butt;stroke-linejoin:miter;stroke-opacity:1"
       d="m 180.56477,228.89592 0,17.04633 2.39911,0 0,-0.63135"
       id="path3765"
       inkscape:connector-curvature="0" />
    <path
       style="fill:none;stroke:#000000;stroke-width:1px;stroke-linecap:butt;stroke-linejoin:miter;stroke-opacity:1"
       d="m 223.74879,228.39085 0,18.43528"
       id="path3767"
       inkscape:connector-curvature="0" />
    <path
       style="fill:none;stroke:#000000;stroke-width:1px;stroke-linecap:butt;stroke-linejoin:miter;stroke-opacity:1"
       d="m 399.76787,216.64782 5.17703,-4.79822"
       id="path3769"
       inkscape:connector-curvature="0" />
    <path
       style="fill:none;stroke:#000000;stroke-width:1px;stroke-linecap:butt;stroke-linejoin:miter;stroke-opacity:1"
       d="m 452.67461,245.05836 6.9448,-6.18718"
       id="path3771"
       inkscape:connector-curvature="0" />
    <path
       style="fill:none;stroke:#000000;stroke-width:1px;stroke-linecap:butt;stroke-linejoin:miter;stroke-opacity:1"
       d="m 490.17652,220.56216 -9.59645,9.47019"
       id="path3773"
       inkscape:connector-curvature="0" />
    <path
       style="fill:none;stroke:#000000;stroke-width:1px;stroke-linecap:butt;stroke-linejoin:miter;stroke-opacity:1"
       d="m 783.75211,235.58818 -9.59645,10.73287 -0.25254,6.43973 -1.13642,1.13642 -2.77792,-3.15673 -1.01015,0 0.12627,2.90419 -0.75762,0.25254 -23.10724,25.25381"
       id="path3775"
       inkscape:connector-curvature="0" />
    <path
       style="fill:none;stroke:#000000;stroke-width:1px;stroke-linecap:butt;stroke-linejoin:miter;stroke-opacity:1"
       d="m 773.01924,234.83057 7.70241,-7.44988"
       id="path3777"
       inkscape:connector-curvature="0" />
    <path
       style="fill:none;stroke:#000000;stroke-width:1px;stroke-linecap:butt;stroke-linejoin:miter;stroke-opacity:1"
       d="m 317.23214,231.58929 10,15.17857"
       id="path4043"
       inkscape:connector-curvature="0" />
    <path
       style="fill:none;stroke:#000000;stroke-width:1px;stroke-linecap:butt;stroke-linejoin:miter;stroke-opacity:1"
       d="m 440,194.98214 -0.17857,-4.375 -1.33929,0 -0.0893,-2.32143"
       id="path4045"
       inkscape:connector-curvature="0" />
    <path
       style="fill:none;stroke:#000000;stroke-width:1px;stroke-linecap:butt;stroke-linejoin:miter;stroke-opacity:1"
       d="m 461.33929,238.55357 0.53571,-0.26786 3.57143,-4.375"
       id="path4047"
       inkscape:connector-curvature="0" />
    <path
       style="fill:none;stroke:#000000;stroke-width:1px;stroke-linecap:butt;stroke-linejoin:miter;stroke-opacity:1"
       d="m 435.80357,181.76786 0,-6.07143 -5.89285,0 0,-1.96429 14.375,0"
       id="path4049"
       inkscape:connector-curvature="0" />
    <path
       style="fill:none;stroke:#000000;stroke-width:1px;stroke-linecap:butt;stroke-linejoin:miter;stroke-opacity:1"
       d="m 429.91072,173.73214 -22.5,0 0,0.80357 -1.69643,0 0,2.41072 1.875,0"
       id="path4051"
       inkscape:connector-curvature="0" />
    <path
       style="fill:none;stroke:#000000;stroke-width:1px;stroke-linecap:butt;stroke-linejoin:miter;stroke-opacity:1"
       d="m 411.875,173.91071 0,-46.07142 2.94643,0 0,40 1.25,0 0,6.07142"
       id="path4053"
       inkscape:connector-curvature="0" />
    <path
       style="fill:none;stroke:#000000;stroke-width:1px;stroke-linecap:butt;stroke-linejoin:miter;stroke-opacity:1"
       d="m 414.82143,139.71429 18.39286,0 0,-0.98215 -18.21429,0"
       id="path4055"
       inkscape:connector-curvature="0" />
    <path
       style="fill:none;stroke:#000000;stroke-width:1px;stroke-linecap:butt;stroke-linejoin:miter;stroke-opacity:1"
       d="m 411.07143,135.60714 -10.26786,0 0,-7.58928 21.42857,0 0,-1.42857 -26.78571,0 0,0.98214 5.71429,0"
       id="path4057"
       inkscape:connector-curvature="0" />
    <path
       style="fill:none;stroke:#000000;stroke-width:1px;stroke-linecap:butt;stroke-linejoin:miter;stroke-opacity:1"
       d="m 410.35714,135.78571 1.51786,0"
       id="path4059"
       inkscape:connector-curvature="0" />
    <path
       style="fill:none;stroke:#000000;stroke-width:1px;stroke-linecap:butt;stroke-linejoin:miter;stroke-opacity:1"
       d="m 400.89286,126.85714 0,-58.124998 1.16071,0 0,53.124998 1.07143,0 0,5.08929"
       id="path4061"
       inkscape:connector-curvature="0" />
    <path
       style="fill:none;stroke:#000000;stroke-width:1px;stroke-linecap:butt;stroke-linejoin:miter;stroke-opacity:1"
       d="m 437.90179,184.84821 4.0625,-2.94642"
       id="path4063"
       inkscape:connector-curvature="0" />
    <path
       style="fill:none;stroke:#000000;stroke-width:1px;stroke-linecap:butt;stroke-linejoin:miter;stroke-opacity:1"
       d="m 411.76343,162.73093 -1.6415,0 -4.29314,0 -0.37881,-1.13642 6.69226,0"
       id="path4065"
       inkscape:connector-curvature="0" />
    <path
       style="fill:none;stroke:#000000;stroke-width:1px;stroke-linecap:butt;stroke-linejoin:miter;stroke-opacity:1"
       d="m 411.63716,133.43651 -10.73287,0.12627"
       id="path4067"
       inkscape:connector-curvature="0" />
    <path
       style="fill:none;stroke:#000000;stroke-width:1px;stroke-linecap:butt;stroke-linejoin:miter;stroke-opacity:1"
       d="m 467.95317,196.69731 2.77792,0 0.3788,2.90419 -1.26269,1.38896 -2.0203,0"
       id="path4069"
       inkscape:connector-curvature="0" />
    <path
       style="fill:none;stroke:#000000;stroke-width:1px;stroke-linecap:butt;stroke-linejoin:miter;stroke-opacity:1"
       d="m 408.85924,195.43462 -0.25253,-17.42513"
       id="path4071"
       inkscape:connector-curvature="0" />
    <path
       style="fill:none;stroke:#000000;stroke-width:1px;stroke-linecap:butt;stroke-linejoin:miter;stroke-opacity:1"
       d="m 399.89414,216.64782 -0.12627,28.78935"
       id="path4073"
       inkscape:connector-curvature="0" />
    <path
       style="fill:none;stroke:#000000;stroke-width:1px;stroke-linecap:butt;stroke-linejoin:miter;stroke-opacity:1"
       d="m 391.56038,217.02663 0.12627,28.66308"
       id="path4075"
       inkscape:connector-curvature="0" />
    <path
       style="fill:none;stroke:#000000;stroke-width:1px;stroke-linecap:butt;stroke-linejoin:miter;stroke-opacity:1"
       d="m 36.870568,277.00444 710.516052,0"
       id="path4077"
       inkscape:connector-curvature="0" />
    <path
       style="fill:none;stroke:#000000;stroke-width:1px;stroke-linecap:butt;stroke-linejoin:miter;stroke-opacity:1"
       d="m 400.77802,103.63701 -11.86929,0"
       id="path4079"
       inkscape:connector-curvature="0" />
    <path
       style="fill:none;stroke:#000000;stroke-width:1px;stroke-linecap:butt;stroke-linejoin:miter;stroke-opacity:1"
       d="m 401.03056,77.878118 -8.08122,0 0,-7.576144"
       id="path4081"
       inkscape:connector-curvature="0" />
    <path
       style="fill:none;stroke:#000000;stroke-width:1px;stroke-linecap:butt;stroke-linejoin:miter;stroke-opacity:1"
       d="m 400.52548,133.68905 -4.79822,0"
       id="path4083"
       inkscape:connector-curvature="0" />
    <path
       style="fill:none;stroke:#000000;stroke-width:1px;stroke-linecap:butt;stroke-linejoin:miter;stroke-opacity:1"
       d="m 414.66762,146.31595 12.12183,-6.31345"
       id="path4085"
       inkscape:connector-curvature="0" />
    <path
       style="fill:none;stroke:#000000;stroke-width:1px;stroke-linecap:butt;stroke-linejoin:miter;stroke-opacity:1"
       d="m 408.60671,173.085 0,-7.32361 -3.78808,-4.04061"
       id="path4087"
       inkscape:connector-curvature="0" />
    <path
       style="fill:none;stroke:#000000;stroke-width:1px;stroke-linecap:butt;stroke-linejoin:miter;stroke-opacity:1"
       d="M 161.875,213.82143 161.96429,206.5"
       id="path4089"
       inkscape:connector-curvature="0" />
    <path
       style="fill:none;stroke:#000000;stroke-width:1px;stroke-linecap:butt;stroke-linejoin:miter;stroke-opacity:1"
       d="m 171.60714,213.73214 0.26786,-7.05357 -10.17857,0"
       id="path4091"
       inkscape:connector-curvature="0" />
    <path
       style="fill:none;stroke:#000000;stroke-width:1px;stroke-linecap:butt;stroke-linejoin:miter;stroke-opacity:1"
       d="m 135.53571,216.23214 0,29.375"
       id="path4093"
       inkscape:connector-curvature="0" />
    <path
       style="fill:none;stroke:#000000;stroke-width:1px;stroke-linecap:butt;stroke-linejoin:miter;stroke-opacity:1"
       d="m 157.94643,245.78571 0,-16.60714"
       id="path4095"
       inkscape:connector-curvature="0" />
    <path
       style="fill:none;stroke:#000000;stroke-width:1px;stroke-linecap:butt;stroke-linejoin:miter;stroke-opacity:1"
       d="m 182.85714,245.96429 0,-17.05358"
       id="path4097"
       inkscape:connector-curvature="0" />
    <path
       style="fill:none;stroke:#000000;stroke-width:1px;stroke-linecap:butt;stroke-linejoin:miter;stroke-opacity:1"
       d="m 211.875,246.76786 0,-18.03572 -1.875,0 0,-0.0893 -0.35714,0 0,18.48214"
       id="path4099"
       inkscape:connector-curvature="0" />
    <path
       style="fill:none;stroke:#000000;stroke-width:1px;stroke-linecap:butt;stroke-linejoin:miter;stroke-opacity:1"
       d="m 197.94643,247.125 0,-18.48214"
       id="path4101"
       inkscape:connector-curvature="0" />
    <path
       style="fill:none;stroke:#000000;stroke-width:1px;stroke-linecap:butt;stroke-linejoin:miter;stroke-opacity:1"
       d="m 195.98214,228.73214 0,18.21429"
       id="path4103"
       inkscape:connector-curvature="0" />
    <path
       style="fill:none;stroke:#000000;stroke-width:1px;stroke-linecap:butt;stroke-linejoin:miter;stroke-opacity:1"
       d="m 154.91071,217.66071 0,12.23215 1.42858,0 0,15.71428"
       id="path4105"
       inkscape:connector-curvature="0" />
    <path
       style="fill:none;stroke:#000000;stroke-width:1px;stroke-linecap:butt;stroke-linejoin:miter;stroke-opacity:1"
       d="m 181.78571,213.46429 0,-3.92858 9.19643,0 0,3.92858"
       id="path4107"
       inkscape:connector-curvature="0" />
  </g>
</svg>
